<?xml version="1.0" encoding="UTF-8" standalone="no"?>
<!DOCTYPE svg PUBLIC "-//W3C//DTD SVG 1.1//EN"
 "http://www.w3.org/Graphics/SVG/1.1/DTD/svg11.dtd">
<!-- Generated by graphviz version 12.2.1 (20241206.2353)
 -->
<!-- Pages: 1 -->
<svg width="1279pt" height="268pt"
 viewBox="0.00 0.00 1279.22 267.60" xmlns="http://www.w3.org/2000/svg" xmlns:xlink="http://www.w3.org/1999/xlink">
<g id="graph0" class="graph" transform="scale(1 1) rotate(0) translate(4 263.6)">
<polygon fill="white" stroke="none" points="-4,4 -4,-263.6 1275.22,-263.6 1275.22,4 -4,4"/>
<!-- q0 -->
<g id="node1" class="node">
<title>q0</title>
<ellipse fill="none" stroke="black" cx="59.32" cy="-75" rx="21.6" ry="21.6"/>
<text text-anchor="middle" x="59.32" y="-70.72" font-family="Arial" font-size="12.00">q0</text>
</g>
<!-- q1 -->
<g id="node2" class="node">
<title>q1</title>
<ellipse fill="none" stroke="black" cx="143.77" cy="-106" rx="21.6" ry="21.6"/>
<text text-anchor="middle" x="143.77" y="-101.72" font-family="Arial" font-size="12.00">q1</text>
</g>
<!-- q0&#45;&gt;q1 -->
<g id="edge8" class="edge">
<title>q0&#45;&gt;q1</title>
<path fill="none" stroke="black" d="M79.86,-82.35C90.97,-86.52 105.02,-91.81 117.02,-96.32"/>
<polygon fill="black" stroke="black" points="116.37,-97.94 121.67,-98.07 117.6,-94.67 116.37,-97.94"/>
<text text-anchor="middle" x="101.54" y="-93.93" font-family="Arial" font-size="10.00">a</text>
</g>
<!-- q2 -->
<g id="node3" class="node">
<title>q2</title>
<ellipse fill="none" stroke="black" cx="143.77" cy="-45" rx="21.6" ry="21.6"/>
<text text-anchor="middle" x="143.77" y="-40.73" font-family="Arial" font-size="12.00">q2</text>
</g>
<!-- q0&#45;&gt;q2 -->
<g id="edge9" class="edge">
<title>q0&#45;&gt;q2</title>
<path fill="none" stroke="black" d="M79.86,-67.89C90.97,-63.85 105.02,-58.74 117.02,-54.37"/>
<polygon fill="black" stroke="black" points="117.56,-56.03 121.66,-52.68 116.37,-52.75 117.56,-56.03"/>
<text text-anchor="middle" x="101.54" y="-63.4" font-family="Arial" font-size="10.00">b</text>
</g>
<!-- q3 -->
<g id="node4" class="node">
<title>q3</title>
<ellipse fill="none" stroke="black" cx="228.22" cy="-76" rx="21.6" ry="21.6"/>
<text text-anchor="middle" x="228.22" y="-71.72" font-family="Arial" font-size="12.00">q3</text>
</g>
<!-- q1&#45;&gt;q3 -->
<g id="edge10" class="edge">
<title>q1&#45;&gt;q3</title>
<path fill="none" stroke="black" d="M164.31,-98.89C175.42,-94.85 189.47,-89.74 201.47,-85.37"/>
<polygon fill="black" stroke="black" points="202.01,-87.03 206.11,-83.68 200.82,-83.75 202.01,-87.03"/>
<text text-anchor="middle" x="185.99" y="-94.4" font-family="Arial" font-size="10.00">a</text>
</g>
<!-- T_q1_b -->
<g id="node21" class="node">
<title>T_q1_b</title>
<ellipse fill="none" stroke="black" cx="228.22" cy="-134" rx="18" ry="18"/>
<text text-anchor="middle" x="228.22" y="-130.5" font-family="Arial" font-size="10.00">T</text>
</g>
<!-- q1&#45;&gt;T_q1_b -->
<g id="edge1" class="edge">
<title>q1&#45;&gt;T_q1_b</title>
<path fill="none" stroke="black" d="M164.73,-112.78C176.85,-116.9 192.35,-122.16 204.89,-126.42"/>
<polygon fill="black" stroke="black" points="204.04,-127.98 209.34,-127.93 205.17,-124.66 204.04,-127.98"/>
<text text-anchor="middle" x="185.99" y="-123.34" font-family="Arial" font-size="10.00">b</text>
</g>
<!-- q2&#45;&gt;q3 -->
<g id="edge11" class="edge">
<title>q2&#45;&gt;q3</title>
<path fill="none" stroke="black" d="M164.31,-52.35C175.42,-56.52 189.47,-61.81 201.47,-66.32"/>
<polygon fill="black" stroke="black" points="200.82,-67.94 206.12,-68.07 202.05,-64.67 200.82,-67.94"/>
<text text-anchor="middle" x="185.99" y="-63.93" font-family="Arial" font-size="10.00">b</text>
</g>
<!-- T_q2_a -->
<g id="node22" class="node">
<title>T_q2_a</title>
<ellipse fill="none" stroke="black" cx="228.22" cy="-18" rx="18" ry="18"/>
<text text-anchor="middle" x="228.22" y="-14.5" font-family="Arial" font-size="10.00">T</text>
</g>
<!-- q2&#45;&gt;T_q2_a -->
<g id="edge2" class="edge">
<title>q2&#45;&gt;T_q2_a</title>
<path fill="none" stroke="black" d="M161.65,-32.71C168.14,-28.61 175.8,-24.46 183.37,-22 189.7,-19.94 196.79,-18.82 203.39,-18.24"/>
<polygon fill="black" stroke="black" points="203.4,-19.99 208.28,-17.92 203.17,-16.5 203.4,-19.99"/>
<text text-anchor="middle" x="185.99" y="-24.5" font-family="Arial" font-size="10.00">a</text>
</g>
<!-- q4 -->
<g id="node5" class="node">
<title>q4</title>
<ellipse fill="none" stroke="black" cx="312.67" cy="-103" rx="21.6" ry="21.6"/>
<text text-anchor="middle" x="312.67" y="-98.72" font-family="Arial" font-size="12.00">q4</text>
</g>
<!-- q3&#45;&gt;q4 -->
<g id="edge12" class="edge">
<title>q3&#45;&gt;q4</title>
<path fill="none" stroke="black" d="M249.18,-82.54C260.14,-86.12 273.85,-90.62 285.64,-94.48"/>
<polygon fill="black" stroke="black" points="284.87,-96.07 290.17,-95.96 285.96,-92.74 284.87,-96.07"/>
<text text-anchor="middle" x="270.44" y="-92.81" font-family="Arial" font-size="10.00">a</text>
</g>
<!-- q5 -->
<g id="node6" class="node">
<title>q5</title>
<ellipse fill="none" stroke="black" cx="312.67" cy="-42" rx="21.6" ry="21.6"/>
<text text-anchor="middle" x="312.67" y="-37.73" font-family="Arial" font-size="12.00">q5</text>
</g>
<!-- q3&#45;&gt;q5 -->
<g id="edge13" class="edge">
<title>q3&#45;&gt;q5</title>
<path fill="none" stroke="black" d="M248.76,-67.94C260.05,-63.28 274.39,-57.38 286.52,-52.37"/>
<polygon fill="black" stroke="black" points="286.92,-54.1 290.87,-50.58 285.58,-50.87 286.92,-54.1"/>
<text text-anchor="middle" x="270.44" y="-62.52" font-family="Arial" font-size="10.00">b</text>
</g>
<!-- q6 -->
<g id="node7" class="node">
<title>q6</title>
<ellipse fill="none" stroke="black" cx="397.12" cy="-154" rx="21.6" ry="21.6"/>
<text text-anchor="middle" x="397.12" y="-149.72" font-family="Arial" font-size="12.00">q6</text>
</g>
<!-- q4&#45;&gt;q6 -->
<g id="edge14" class="edge">
<title>q4&#45;&gt;q6</title>
<path fill="none" stroke="black" d="M331.56,-114.07C343.66,-121.55 359.76,-131.51 372.86,-139.61"/>
<polygon fill="black" stroke="black" points="371.8,-141.02 376.98,-142.16 373.65,-138.04 371.8,-141.02"/>
<text text-anchor="middle" x="354.89" y="-132.53" font-family="Arial" font-size="10.00">b</text>
</g>
<!-- T_q4_a -->
<g id="node23" class="node">
<title>T_q4_a</title>
<ellipse fill="none" stroke="black" cx="397.12" cy="-96" rx="18" ry="18"/>
<text text-anchor="middle" x="397.12" y="-92.5" font-family="Arial" font-size="10.00">T</text>
</g>
<!-- q4&#45;&gt;T_q4_a -->
<g id="edge3" class="edge">
<title>q4&#45;&gt;T_q4_a</title>
<path fill="none" stroke="black" d="M334.48,-101.23C346.07,-100.25 360.54,-99.02 372.55,-98"/>
<polygon fill="black" stroke="black" points="372.59,-99.75 377.43,-97.59 372.3,-96.27 372.59,-99.75"/>
<text text-anchor="middle" x="354.89" y="-102.21" font-family="Arial" font-size="10.00">a</text>
</g>
<!-- q7 -->
<g id="node8" class="node">
<title>q7</title>
<ellipse fill="none" stroke="black" cx="397.12" cy="-38" rx="21.6" ry="21.6"/>
<text text-anchor="middle" x="397.12" y="-33.73" font-family="Arial" font-size="12.00">q7</text>
</g>
<!-- q5&#45;&gt;q7 -->
<g id="edge15" class="edge">
<title>q5&#45;&gt;q7</title>
<path fill="none" stroke="black" d="M334.48,-40.99C344.92,-40.48 357.71,-39.86 368.93,-39.32"/>
<polygon fill="black" stroke="black" points="368.9,-41.07 373.81,-39.08 368.73,-37.58 368.9,-41.07"/>
<text text-anchor="middle" x="354.89" y="-42.62" font-family="Arial" font-size="10.00">a</text>
</g>
<!-- q5&#45;&gt;q7 -->
<g id="edge16" class="edge">
<title>q5&#45;&gt;q7</title>
<path fill="none" stroke="black" d="M331.94,-31.5C338.18,-28.45 345.34,-25.54 352.27,-24 358.71,-22.57 365.55,-23.52 371.87,-25.46"/>
<polygon fill="black" stroke="black" points="371.26,-27.1 376.55,-27.16 372.45,-23.81 371.26,-27.1"/>
<text text-anchor="middle" x="354.89" y="-26.5" font-family="Arial" font-size="10.00">b</text>
</g>
<!-- q8 -->
<g id="node9" class="node">
<title>q8</title>
<ellipse fill="none" stroke="black" cx="481.57" cy="-96" rx="21.6" ry="21.6"/>
<text text-anchor="middle" x="481.57" y="-91.72" font-family="Arial" font-size="12.00">q8</text>
</g>
<!-- q6&#45;&gt;q8 -->
<g id="edge17" class="edge">
<title>q6&#45;&gt;q8</title>
<path fill="none" stroke="black" d="M415.2,-141.98C427.61,-133.25 444.53,-121.35 458.04,-111.85"/>
<polygon fill="black" stroke="black" points="458.9,-113.38 461.99,-109.07 456.89,-110.52 458.9,-113.38"/>
<text text-anchor="middle" x="439.34" y="-129.24" font-family="Arial" font-size="10.00">a</text>
</g>
<!-- T_q6_b -->
<g id="node24" class="node">
<title>T_q6_b</title>
<ellipse fill="none" stroke="black" cx="481.57" cy="-154" rx="18" ry="18"/>
<text text-anchor="middle" x="481.57" y="-150.5" font-family="Arial" font-size="10.00">T</text>
</g>
<!-- q6&#45;&gt;T_q6_b -->
<g id="edge4" class="edge">
<title>q6&#45;&gt;T_q6_b</title>
<path fill="none" stroke="black" d="M418.93,-154C430.44,-154 444.79,-154 456.75,-154"/>
<polygon fill="black" stroke="black" points="456.6,-155.75 461.6,-154 456.6,-152.25 456.6,-155.75"/>
<text text-anchor="middle" x="439.34" y="-156.5" font-family="Arial" font-size="10.00">b</text>
</g>
<!-- q7&#45;&gt;q8 -->
<g id="edge18" class="edge">
<title>q7&#45;&gt;q8</title>
<path fill="none" stroke="black" d="M415.2,-50.02C427.61,-58.75 444.53,-70.65 458.04,-80.15"/>
<polygon fill="black" stroke="black" points="456.89,-81.48 461.99,-82.93 458.9,-78.62 456.89,-81.48"/>
<text text-anchor="middle" x="439.34" y="-71.24" font-family="Arial" font-size="10.00">b</text>
</g>
<!-- T_q7_a -->
<g id="node25" class="node">
<title>T_q7_a</title>
<ellipse fill="none" stroke="black" cx="481.57" cy="-38" rx="18" ry="18"/>
<text text-anchor="middle" x="481.57" y="-34.5" font-family="Arial" font-size="10.00">T</text>
</g>
<!-- q7&#45;&gt;T_q7_a -->
<g id="edge5" class="edge">
<title>q7&#45;&gt;T_q7_a</title>
<path fill="none" stroke="black" d="M418.93,-38C430.44,-38 444.79,-38 456.75,-38"/>
<polygon fill="black" stroke="black" points="456.6,-39.75 461.6,-38 456.6,-36.25 456.6,-39.75"/>
<text text-anchor="middle" x="439.34" y="-40.5" font-family="Arial" font-size="10.00">a</text>
</g>
<!-- q9 -->
<g id="node10" class="node">
<title>q9</title>
<ellipse fill="none" stroke="black" cx="566.02" cy="-174" rx="21.6" ry="21.6"/>
<text text-anchor="middle" x="566.02" y="-169.72" font-family="Arial" font-size="12.00">q9</text>
</g>
<!-- q8&#45;&gt;q9 -->
<g id="edge19" class="edge">
<title>q8&#45;&gt;q9</title>
<path fill="none" stroke="black" d="M497.93,-110.81C504.99,-117.59 513.49,-125.72 521.17,-133 528.94,-140.36 537.53,-148.41 545.04,-155.41"/>
<polygon fill="black" stroke="black" points="543.6,-156.46 548.45,-158.59 545.98,-153.9 543.6,-156.46"/>
<text text-anchor="middle" x="523.79" y="-139.97" font-family="Arial" font-size="10.00">a</text>
</g>
<!-- q10 -->
<g id="node11" class="node">
<title>q10</title>
<ellipse fill="none" stroke="black" cx="650.47" cy="-196" rx="21.6" ry="21.6"/>
<text text-anchor="middle" x="650.47" y="-191.72" font-family="Arial" font-size="12.00">q10</text>
</g>
<!-- q8&#45;&gt;q10 -->
<g id="edge20" class="edge">
<title>q8&#45;&gt;q10</title>
<path fill="none" stroke="black" d="M503.21,-99.76C525.38,-104.49 561.01,-114.1 587.62,-131 597.54,-137.3 617.24,-158.74 631.75,-175.29"/>
<polygon fill="black" stroke="black" points="630.09,-176.05 634.7,-178.67 632.73,-173.75 630.09,-176.05"/>
<text text-anchor="middle" x="566.02" y="-133.5" font-family="Arial" font-size="10.00">b</text>
</g>
<!-- q9&#45;&gt;q10 -->
<g id="edge22" class="edge">
<title>q9&#45;&gt;q10</title>
<path fill="none" stroke="black" d="M585.92,-182.97C592.09,-185.59 599.04,-188.22 605.62,-190 610.95,-191.44 616.74,-192.55 622.32,-193.39"/>
<polygon fill="black" stroke="black" points="622.04,-195.12 627.23,-194.06 622.51,-191.65 622.04,-195.12"/>
<text text-anchor="middle" x="608.24" y="-193.65" font-family="Arial" font-size="10.00">b</text>
</g>
<!-- q11 -->
<g id="node12" class="node">
<title>q11</title>
<ellipse fill="none" stroke="black" cx="734.92" cy="-177" rx="21.6" ry="21.6"/>
<text text-anchor="middle" x="734.92" y="-172.72" font-family="Arial" font-size="12.00">q11</text>
</g>
<!-- q9&#45;&gt;q11 -->
<g id="edge21" class="edge">
<title>q9&#45;&gt;q11</title>
<path fill="none" stroke="black" d="M586.37,-165.6C598.36,-160.86 614.21,-155.42 628.87,-153 647.81,-149.87 653.2,-149.47 672.07,-153 684.68,-155.36 698.02,-160.21 709.08,-164.94"/>
<polygon fill="black" stroke="black" points="708.3,-166.5 713.58,-166.92 709.71,-163.3 708.3,-166.5"/>
<text text-anchor="middle" x="650.47" y="-155.5" font-family="Arial" font-size="10.00">a</text>
</g>
<!-- q10&#45;&gt;q9 -->
<g id="edge23" class="edge">
<title>q10&#45;&gt;q9</title>
<path fill="none" stroke="black" d="M632.15,-184.3C625.74,-180.6 618.24,-176.97 610.87,-175 605.58,-173.59 599.81,-172.89 594.23,-172.62"/>
<polygon fill="black" stroke="black" points="594.38,-170.87 589.34,-172.51 594.3,-174.37 594.38,-170.87"/>
<text text-anchor="middle" x="608.24" y="-177.5" font-family="Arial" font-size="10.00">a</text>
</g>
<!-- q10&#45;&gt;q11 -->
<g id="edge24" class="edge">
<title>q10&#45;&gt;q11</title>
<path fill="none" stroke="black" d="M672.14,-193.99C679.51,-193.05 687.84,-191.75 695.32,-190 699.58,-189 704.03,-187.73 708.33,-186.37"/>
<polygon fill="black" stroke="black" points="708.85,-188.04 713.05,-184.81 707.76,-184.72 708.85,-188.04"/>
<text text-anchor="middle" x="692.69" y="-193.52" font-family="Arial" font-size="10.00">b</text>
</g>
<!-- q11&#45;&gt;q10 -->
<g id="edge26" class="edge">
<title>q11&#45;&gt;q10</title>
<path fill="none" stroke="black" d="M713.14,-173.58C705.76,-173.02 697.46,-173.12 690.07,-175 684.76,-176.35 679.38,-178.6 674.4,-181.13"/>
<polygon fill="black" stroke="black" points="673.65,-179.55 670.09,-183.48 675.32,-182.63 673.65,-179.55"/>
<text text-anchor="middle" x="692.69" y="-177.5" font-family="Arial" font-size="10.00">b</text>
</g>
<!-- q12 -->
<g id="node13" class="node">
<title>q12</title>
<ellipse fill="none" stroke="black" cx="819.37" cy="-177" rx="21.6" ry="21.6"/>
<text text-anchor="middle" x="819.37" y="-172.72" font-family="Arial" font-size="12.00">q12</text>
</g>
<!-- q11&#45;&gt;q12 -->
<g id="edge25" class="edge">
<title>q11&#45;&gt;q12</title>
<path fill="none" stroke="black" d="M756.73,-177C767.09,-177 779.77,-177 790.92,-177"/>
<polygon fill="black" stroke="black" points="790.77,-178.75 795.77,-177 790.77,-175.25 790.77,-178.75"/>
<text text-anchor="middle" x="777.14" y="-179.5" font-family="Arial" font-size="10.00">a</text>
</g>
<!-- q12&#45;&gt;q12 -->
<g id="edge28" class="edge">
<title>q12&#45;&gt;q12</title>
<path fill="none" stroke="black" d="M811.69,-197.37C810.62,-207.54 813.18,-216.6 819.37,-216.6 824.2,-216.6 826.82,-211.07 827.23,-203.8"/>
<polygon fill="black" stroke="black" points="828.98,-203.84 827.1,-198.89 825.48,-203.93 828.98,-203.84"/>
<text text-anchor="middle" x="819.37" y="-219.1" font-family="Arial" font-size="10.00">b</text>
</g>
<!-- q13 -->
<g id="node14" class="node">
<title>q13</title>
<ellipse fill="none" stroke="black" cx="903.82" cy="-208" rx="21.6" ry="21.6"/>
<text text-anchor="middle" x="903.82" y="-203.72" font-family="Arial" font-size="12.00">q13</text>
</g>
<!-- q12&#45;&gt;q13 -->
<g id="edge27" class="edge">
<title>q12&#45;&gt;q13</title>
<path fill="none" stroke="black" d="M839.91,-184.35C851.02,-188.52 865.07,-193.81 877.07,-198.32"/>
<polygon fill="black" stroke="black" points="876.42,-199.94 881.72,-200.07 877.65,-196.67 876.42,-199.94"/>
<text text-anchor="middle" x="861.59" y="-195.93" font-family="Arial" font-size="10.00">a</text>
</g>
<!-- q13&#45;&gt;q13 -->
<g id="edge30" class="edge">
<title>q13&#45;&gt;q13</title>
<path fill="none" stroke="black" d="M896.14,-228.37C895.07,-238.54 897.63,-247.6 903.82,-247.6 908.65,-247.6 911.27,-242.07 911.68,-234.8"/>
<polygon fill="black" stroke="black" points="913.43,-234.84 911.55,-229.89 909.93,-234.93 913.43,-234.84"/>
<text text-anchor="middle" x="903.82" y="-250.1" font-family="Arial" font-size="10.00">b</text>
</g>
<!-- q14 -->
<g id="node15" class="node">
<title>q14</title>
<ellipse fill="none" stroke="black" cx="988.27" cy="-161" rx="21.6" ry="21.6"/>
<text text-anchor="middle" x="988.27" y="-156.72" font-family="Arial" font-size="12.00">q14</text>
</g>
<!-- q13&#45;&gt;q14 -->
<g id="edge29" class="edge">
<title>q13&#45;&gt;q14</title>
<path fill="none" stroke="black" d="M923.12,-197.57C935.07,-190.75 950.8,-181.79 963.69,-174.44"/>
<polygon fill="black" stroke="black" points="964.23,-176.15 967.71,-172.15 962.5,-173.11 964.23,-176.15"/>
<text text-anchor="middle" x="946.04" y="-188.41" font-family="Arial" font-size="10.00">a</text>
</g>
<!-- T_q13_b_VISUAL -->
<g id="node26" class="node">
<title>T_q13_b_VISUAL</title>
<ellipse fill="none" stroke="black" cx="988.27" cy="-219" rx="18" ry="18"/>
<text text-anchor="middle" x="988.27" y="-215.5" font-family="Arial" font-size="10.00">T</text>
</g>
<!-- q13&#45;&gt;T_q13_b_VISUAL -->
<g id="edge6" class="edge">
<title>q13&#45;&gt;T_q13_b_VISUAL</title>
<path fill="none" stroke="black" d="M925.63,-210.78C937.22,-212.32 951.69,-214.25 963.7,-215.86"/>
<polygon fill="black" stroke="black" points="963.4,-217.58 968.59,-216.51 963.86,-214.11 963.4,-217.58"/>
<text text-anchor="middle" x="946.04" y="-216.33" font-family="Arial" font-size="10.00">b</text>
</g>
<!-- q15 -->
<g id="node16" class="node">
<title>q15</title>
<ellipse fill="none" stroke="black" cx="1072.72" cy="-92" rx="21.6" ry="21.6"/>
<text text-anchor="middle" x="1072.72" y="-87.72" font-family="Arial" font-size="12.00">q15</text>
</g>
<!-- q14&#45;&gt;q15 -->
<g id="edge32" class="edge">
<title>q14&#45;&gt;q15</title>
<path fill="none" stroke="black" d="M1005.56,-147.37C1018.43,-136.59 1036.5,-121.47 1050.51,-109.75"/>
<polygon fill="black" stroke="black" points="1051.59,-111.13 1054.3,-106.58 1049.35,-108.44 1051.59,-111.13"/>
<text text-anchor="middle" x="1030.49" y="-131.07" font-family="Arial" font-size="10.00">b</text>
</g>
<!-- q16 -->
<g id="node17" class="node">
<title>q16</title>
<ellipse fill="none" stroke="black" cx="1072.72" cy="-170" rx="21.6" ry="21.6"/>
<text text-anchor="middle" x="1072.72" y="-165.72" font-family="Arial" font-size="12.00">q16</text>
</g>
<!-- q14&#45;&gt;q16 -->
<g id="edge31" class="edge">
<title>q14&#45;&gt;q16</title>
<path fill="none" stroke="black" d="M1010.08,-163.27C1020.52,-164.41 1033.31,-165.81 1044.53,-167.03"/>
<polygon fill="black" stroke="black" points="1044.26,-168.76 1049.42,-167.57 1044.64,-165.28 1044.26,-168.76"/>
<text text-anchor="middle" x="1030.49" y="-168.27" font-family="Arial" font-size="10.00">a</text>
</g>
<!-- q15&#45;&gt;q8 -->
<g id="edge33" class="edge">
<title>q15&#45;&gt;q8</title>
<path fill="none" stroke="black" d="M1052.02,-84.82C1035.5,-79.44 1011.16,-73 989.27,-73 565.02,-73 565.02,-73 565.02,-73 545.17,-73 523.58,-79.26 507.48,-85.25"/>
<polygon fill="black" stroke="black" points="507.26,-83.46 503.22,-86.89 508.51,-86.73 507.26,-83.46"/>
<text text-anchor="middle" x="777.14" y="-75.5" font-family="Arial" font-size="10.00">a</text>
</g>
<!-- q17 -->
<g id="node18" class="node">
<title>q17</title>
<ellipse fill="none" stroke="black" cx="1157.17" cy="-92" rx="21.6" ry="21.6"/>
<text text-anchor="middle" x="1157.17" y="-87.72" font-family="Arial" font-size="12.00">q17</text>
</g>
<!-- q15&#45;&gt;q17 -->
<g id="edge34" class="edge">
<title>q15&#45;&gt;q17</title>
<path fill="none" stroke="black" d="M1094.53,-92C1104.89,-92 1117.57,-92 1128.72,-92"/>
<polygon fill="black" stroke="black" points="1128.57,-93.75 1133.57,-92 1128.57,-90.25 1128.57,-93.75"/>
<text text-anchor="middle" x="1114.94" y="-94.5" font-family="Arial" font-size="10.00">b</text>
</g>
<!-- q16&#45;&gt;q12 -->
<g id="edge36" class="edge">
<title>q16&#45;&gt;q12</title>
<path fill="none" stroke="black" d="M1061.4,-151.63C1054.74,-141.75 1045.09,-130.5 1033.12,-125 1031,-124.03 1030.2,-124.9 1027.87,-125 1000.6,-126.11 993.44,-124.68 966.67,-130 923.19,-138.64 874.51,-155.87 845.7,-166.89"/>
<polygon fill="black" stroke="black" points="845.31,-165.17 841.28,-168.6 846.57,-168.43 845.31,-165.17"/>
<text text-anchor="middle" x="946.04" y="-137.44" font-family="Arial" font-size="10.00">b</text>
</g>
<!-- q18 -->
<g id="node19" class="node">
<title>q18</title>
<ellipse fill="none" stroke="black" cx="1157.17" cy="-170" rx="21.6" ry="21.6"/>
<text text-anchor="middle" x="1157.17" y="-165.72" font-family="Arial" font-size="12.00">q18</text>
</g>
<!-- q16&#45;&gt;q18 -->
<g id="edge35" class="edge">
<title>q16&#45;&gt;q18</title>
<path fill="none" stroke="black" d="M1094.53,-170C1104.89,-170 1117.57,-170 1128.72,-170"/>
<polygon fill="black" stroke="black" points="1128.57,-171.75 1133.57,-170 1128.57,-168.25 1128.57,-171.75"/>
<text text-anchor="middle" x="1114.94" y="-172.5" font-family="Arial" font-size="10.00">a</text>
</g>
<!-- q17&#45;&gt;q8 -->
<g id="edge37" class="edge">
<title>q17&#45;&gt;q8</title>
<path fill="none" stroke="black" d="M1143.33,-74.93C1128.62,-57.51 1102.76,-33 1073.72,-33 565.02,-33 565.02,-33 565.02,-33 537.52,-33 513.5,-55.4 498.59,-73.49"/>
<polygon fill="black" stroke="black" points="497.32,-72.27 495.57,-77.27 500.06,-74.45 497.32,-72.27"/>
<text text-anchor="middle" x="819.37" y="-35.5" font-family="Arial" font-size="10.00">a</text>
</g>
<!-- q19 -->
<g id="node20" class="node">
<title>q19</title>
<ellipse fill="none" stroke="black" cx="1245.62" cy="-122" rx="21.6" ry="21.6"/>
<ellipse fill="none" stroke="black" cx="1245.62" cy="-122" rx="25.6" ry="25.6"/>
<text text-anchor="middle" x="1245.62" y="-117.72" font-family="Arial" font-size="12.00">q19</text>
</g>
<!-- q17&#45;&gt;q19 -->
<g id="edge38" class="edge">
<title>q17&#45;&gt;q19</title>
<path fill="none" stroke="black" d="M1177.79,-98.81C1188.83,-102.64 1202.84,-107.5 1215.18,-111.78"/>
<polygon fill="black" stroke="black" points="1214.36,-113.35 1219.65,-113.34 1215.5,-110.04 1214.36,-113.35"/>
<text text-anchor="middle" x="1199.39" y="-109.5" font-family="Arial" font-size="10.00">b</text>
</g>
<!-- q18&#45;&gt;q13 -->
<g id="edge40" class="edge">
<title>q18&#45;&gt;q13</title>
<path fill="none" stroke="black" d="M1139.25,-182.28C1113.07,-200.44 1060.47,-233.64 1009.87,-246 991.22,-250.56 985.15,-251.22 966.67,-246 952.05,-241.87 937.49,-233.2 926.17,-225.19"/>
<polygon fill="black" stroke="black" points="927.5,-223.99 922.43,-222.46 925.44,-226.82 927.5,-223.99"/>
<text text-anchor="middle" x="1030.49" y="-243.26" font-family="Arial" font-size="10.00">b</text>
</g>
<!-- q18&#45;&gt;q19 -->
<g id="edge39" class="edge">
<title>q18&#45;&gt;q19</title>
<path fill="none" stroke="black" d="M1176.5,-159.82C1188.3,-153.27 1203.85,-144.64 1217.11,-137.27"/>
<polygon fill="black" stroke="black" points="1217.79,-138.9 1221.31,-134.94 1216.09,-135.84 1217.79,-138.9"/>
<text text-anchor="middle" x="1199.39" y="-149.94" font-family="Arial" font-size="10.00">a</text>
</g>
<!-- q19&#45;&gt;q19 -->
<g id="edge41" class="edge">
<title>q19&#45;&gt;q19</title>
<path fill="none" stroke="black" d="M1241.3,-147.53C1241.11,-157.4 1242.55,-165.6 1245.62,-165.6 1248.02,-165.6 1249.42,-160.59 1249.83,-153.7"/>
<polygon fill="black" stroke="black" points="1251.57,-154.07 1249.91,-149.04 1248.07,-154.01 1251.57,-154.07"/>
<text text-anchor="middle" x="1245.62" y="-168.1" font-family="Arial" font-size="10.00">a</text>
</g>
<!-- q19&#45;&gt;q19 -->
<g id="edge42" class="edge">
<title>q19&#45;&gt;q19</title>
<path fill="none" stroke="black" d="M1237.98,-146.67C1235.31,-165.06 1237.86,-183.6 1245.62,-183.6 1252.47,-183.6 1255.26,-169.15 1253.99,-153.11"/>
<polygon fill="black" stroke="black" points="1255.73,-152.95 1253.43,-148.17 1252.25,-153.34 1255.73,-152.95"/>
<text text-anchor="middle" x="1245.62" y="-186.1" font-family="Arial" font-size="10.00">b</text>
</g>
<!-- start_point -->
<g id="node27" class="node">
<title>start_point</title>
<ellipse fill="white" stroke="black" cx="0.36" cy="-75" rx="0.36" ry="0.36"/>
</g>
<!-- start_point&#45;&gt;q0 -->
<g id="edge7" class="edge">
<title>start_point&#45;&gt;q0</title>
<path fill="none" stroke="black" d="M0.89,-75C2.58,-75 17.01,-75 30.98,-75"/>
<polygon fill="black" stroke="black" points="30.81,-76.75 35.81,-75 30.81,-73.25 30.81,-76.75"/>
</g>
</g>
</svg>
