<?xml version="1.0" encoding="UTF-8" standalone="no"?>
<!DOCTYPE svg PUBLIC "-//W3C//DTD SVG 1.1//EN"
 "http://www.w3.org/Graphics/SVG/1.1/DTD/svg11.dtd">
<!-- Generated by graphviz version 12.2.1 (20241206.2353)
 -->
<!-- Pages: 1 -->
<svg width="1277pt" height="282pt"
 viewBox="0.00 0.00 1276.57 281.76" xmlns="http://www.w3.org/2000/svg" xmlns:xlink="http://www.w3.org/1999/xlink">
<g id="graph0" class="graph" transform="scale(1 1) rotate(0) translate(4 277.76)">
<polygon fill="white" stroke="none" points="-4,4 -4,-277.76 1272.57,-277.76 1272.57,4 -4,4"/>
<!-- T_bottom -->
<g id="node1" class="node">
<title>T_bottom</title>
<ellipse fill="none" stroke="black" cx="465.09" cy="-203" rx="18" ry="18"/>
<text text-anchor="middle" x="465.09" y="-198.72" font-family="Arial" font-size="12.00">T</text>
</g>
<!-- T_bottom&#45;&gt;T_bottom -->
<g id="edge_T_bottom_T_bottom_a_b" class="edge">
<title>T_bottom&#45;&gt;T_bottom</title>
<path fill="none" stroke="black" d="M458.11,-220.04C456.69,-229.86 459.01,-239 465.09,-239 469.84,-239 472.3,-233.42 472.47,-226.3"/>
<polygon fill="black" stroke="black" points="474.23,-226.43 472.16,-221.55 470.73,-226.65 474.23,-226.43"/>
<text text-anchor="middle" x="465.09" y="-241.5" font-family="Arial" font-size="10.00">a,b</text>
</g>
<!-- T_top -->
<g id="node2" class="node">
<title>T_top</title>
<ellipse fill="none" stroke="black" cx="465.09" cy="-46" rx="18" ry="18"/>
<text text-anchor="middle" x="465.09" y="-41.73" font-family="Arial" font-size="12.00">T</text>
</g>
<!-- T_top&#45;&gt;T_top -->
<g id="edge_T_top_T_top_a_b" class="edge">
<title>T_top&#45;&gt;T_top</title>
<path fill="none" stroke="black" d="M458.11,-63.04C456.69,-72.86 459.01,-82 465.09,-82 469.84,-82 472.3,-76.42 472.47,-69.3"/>
<polygon fill="black" stroke="black" points="474.23,-69.43 472.16,-64.55 470.73,-69.65 474.23,-69.43"/>
<text text-anchor="middle" x="465.09" y="-84.5" font-family="Arial" font-size="10.00">a,b</text>
</g>
<!-- q0 -->
<g id="node3" class="node">
<title>q0</title>
<ellipse fill="none" stroke="black" cx="62.96" cy="-121" rx="18.76" ry="18.76"/>
<text text-anchor="middle" x="62.96" y="-116.72" font-family="Arial" font-size="12.00">q0</text>
</g>
<!-- q1 -->
<g id="node4" class="node">
<title>q1</title>
<ellipse fill="none" stroke="black" cx="141.74" cy="-94" rx="18.76" ry="18.76"/>
<text text-anchor="middle" x="141.74" y="-89.72" font-family="Arial" font-size="12.00">q1</text>
</g>
<!-- q0&#45;&gt;q1 -->
<g id="edge_q0_q1_a" class="edge">
<title>q0&#45;&gt;q1</title>
<path fill="none" stroke="black" d="M81,-115.01C91.76,-111.22 105.8,-106.29 117.57,-102.15"/>
<polygon fill="black" stroke="black" points="117.92,-103.88 122.05,-100.57 116.76,-100.58 117.92,-103.88"/>
<text text-anchor="middle" x="102.35" y="-110.81" font-family="Arial" font-size="10.00">a</text>
</g>
<!-- q2 -->
<g id="node15" class="node">
<title>q2</title>
<ellipse fill="none" stroke="black" cx="141.74" cy="-150" rx="18.76" ry="18.76"/>
<text text-anchor="middle" x="141.74" y="-145.72" font-family="Arial" font-size="12.00">q2</text>
</g>
<!-- q0&#45;&gt;q2 -->
<g id="edge_q0_q2_b" class="edge">
<title>q0&#45;&gt;q2</title>
<path fill="none" stroke="black" d="M81,-127.44C91.84,-131.53 106,-136.88 117.81,-141.34"/>
<polygon fill="black" stroke="black" points="117.04,-142.92 122.33,-143.05 118.27,-139.64 117.04,-142.92"/>
<text text-anchor="middle" x="102.35" y="-138.87" font-family="Arial" font-size="10.00">b</text>
</g>
<!-- q1&#45;&gt;T_top -->
<g id="edge_q1_T_top_b" class="edge">
<title>q1&#45;&gt;T_top</title>
<path fill="none" stroke="black" d="M148.18,-76.32C157.8,-49.09 180.53,0 219.51,0 219.51,0 219.51,0 387.31,0 410.63,0 432.99,-15.8 447.5,-28.88"/>
<polygon fill="black" stroke="black" points="446.16,-30.02 451.01,-32.15 448.55,-27.46 446.16,-30.02"/>
<text text-anchor="middle" x="299.29" y="-2.5" font-family="Arial" font-size="10.00">b</text>
</g>
<!-- q3 -->
<g id="node16" class="node">
<title>q3</title>
<ellipse fill="none" stroke="black" cx="220.51" cy="-123" rx="18.76" ry="18.76"/>
<text text-anchor="middle" x="220.51" y="-118.72" font-family="Arial" font-size="12.00">q3</text>
</g>
<!-- q1&#45;&gt;q3 -->
<g id="edge_q1_q3_a" class="edge">
<title>q1&#45;&gt;q3</title>
<path fill="none" stroke="black" d="M159.78,-100.44C170.61,-104.53 184.77,-109.88 196.59,-114.34"/>
<polygon fill="black" stroke="black" points="195.81,-115.92 201.11,-116.05 197.05,-112.64 195.81,-115.92"/>
<text text-anchor="middle" x="181.13" y="-111.87" font-family="Arial" font-size="10.00">a</text>
</g>
<!-- q10 -->
<g id="node5" class="node">
<title>q10</title>
<ellipse fill="none" stroke="black" cx="548.16" cy="-192" rx="23.06" ry="23.06"/>
<text text-anchor="middle" x="548.16" y="-187.72" font-family="Arial" font-size="12.00">q10</text>
</g>
<!-- q11 -->
<g id="node6" class="node">
<title>q11</title>
<ellipse fill="none" stroke="black" cx="713.82" cy="-197" rx="22.58" ry="22.58"/>
<text text-anchor="middle" x="713.82" y="-192.72" font-family="Arial" font-size="12.00">q11</text>
</g>
<!-- q10&#45;&gt;q11 -->
<g id="edge_q10_q11_b" class="edge">
<title>q10&#45;&gt;q11</title>
<path fill="none" stroke="black" d="M571.57,-192.68C601.04,-193.58 652.8,-195.17 684.81,-196.14"/>
<polygon fill="black" stroke="black" points="684.37,-197.88 689.42,-196.29 684.48,-194.38 684.37,-197.88"/>
<text text-anchor="middle" x="631.23" y="-197.58" font-family="Arial" font-size="10.00">b</text>
</g>
<!-- q9 -->
<g id="node22" class="node">
<title>q9</title>
<ellipse fill="none" stroke="black" cx="631.23" cy="-255" rx="18.76" ry="18.76"/>
<text text-anchor="middle" x="631.23" y="-250.72" font-family="Arial" font-size="12.00">q9</text>
</g>
<!-- q10&#45;&gt;q9 -->
<g id="edge_q10_q9_a" class="edge">
<title>q10&#45;&gt;q9</title>
<path fill="none" stroke="black" d="M568.06,-204.14C576.34,-209.66 586.06,-216.41 594.46,-223 600.51,-227.74 606.84,-233.22 612.46,-238.28"/>
<polygon fill="black" stroke="black" points="611.01,-239.32 615.88,-241.4 613.36,-236.74 611.01,-239.32"/>
<text text-anchor="middle" x="591.84" y="-225.5" font-family="Arial" font-size="10.00">a</text>
</g>
<!-- q11&#45;&gt;q10 -->
<g id="edge_q11_q10_b" class="edge">
<title>q11&#45;&gt;q10</title>
<path fill="none" stroke="black" d="M692.23,-189.1C680.13,-184.88 664.42,-180.13 649.99,-178 625.22,-174.34 596.99,-179.02 576.71,-183.92"/>
<polygon fill="black" stroke="black" points="576.3,-182.22 571.89,-185.15 577.16,-185.62 576.3,-182.22"/>
<text text-anchor="middle" x="631.23" y="-180.5" font-family="Arial" font-size="10.00">b</text>
</g>
<!-- q12 -->
<g id="node7" class="node">
<title>q12</title>
<ellipse fill="none" stroke="black" cx="800.7" cy="-197" rx="23.06" ry="23.06"/>
<text text-anchor="middle" x="800.7" y="-192.72" font-family="Arial" font-size="12.00">q12</text>
</g>
<!-- q11&#45;&gt;q12 -->
<g id="edge_q11_q12_a" class="edge">
<title>q11&#45;&gt;q12</title>
<path fill="none" stroke="black" d="M736.68,-197C747.11,-197 759.73,-197 770.92,-197"/>
<polygon fill="black" stroke="black" points="770.81,-198.75 775.81,-197 770.81,-195.25 770.81,-198.75"/>
<text text-anchor="middle" x="757.02" y="-199.5" font-family="Arial" font-size="10.00">a</text>
</g>
<!-- q12&#45;&gt;q12 -->
<g id="edge_q12_q12_b" class="edge">
<title>q12&#45;&gt;q12</title>
<path fill="none" stroke="black" d="M792.67,-218.96C791.8,-229.15 794.48,-238.06 800.7,-238.06 805.57,-238.06 808.27,-232.62 808.8,-225.39"/>
<polygon fill="black" stroke="black" points="810.55,-225.46 808.75,-220.48 807.05,-225.5 810.55,-225.46"/>
<text text-anchor="middle" x="800.7" y="-240.56" font-family="Arial" font-size="10.00">b</text>
</g>
<!-- q13 -->
<g id="node8" class="node">
<title>q13</title>
<ellipse fill="none" stroke="black" cx="888.06" cy="-184" rx="23.06" ry="23.06"/>
<text text-anchor="middle" x="888.06" y="-179.72" font-family="Arial" font-size="12.00">q13</text>
</g>
<!-- q12&#45;&gt;q13 -->
<g id="edge_q12_q13_a" class="edge">
<title>q12&#45;&gt;q13</title>
<path fill="none" stroke="black" d="M823.69,-193.65C834.36,-192.03 847.3,-190.06 858.71,-188.32"/>
<polygon fill="black" stroke="black" points="858.68,-190.09 863.36,-187.61 858.16,-186.63 858.68,-190.09"/>
<text text-anchor="middle" x="844.38" y="-193.39" font-family="Arial" font-size="10.00">a</text>
</g>
<!-- q13&#45;&gt;q13 -->
<g id="edge_q13_q13_b" class="edge">
<title>q13&#45;&gt;q13</title>
<path fill="none" stroke="black" d="M880.04,-205.96C879.16,-216.15 881.84,-225.06 888.06,-225.06 892.93,-225.06 895.63,-219.62 896.16,-212.39"/>
<polygon fill="black" stroke="black" points="897.91,-212.46 896.11,-207.48 894.41,-212.5 897.91,-212.46"/>
<text text-anchor="middle" x="888.06" y="-227.56" font-family="Arial" font-size="10.00">b</text>
</g>
<!-- q14 -->
<g id="node9" class="node">
<title>q14</title>
<ellipse fill="none" stroke="black" cx="975.43" cy="-176" rx="23.06" ry="23.06"/>
<text text-anchor="middle" x="975.43" y="-171.72" font-family="Arial" font-size="12.00">q14</text>
</g>
<!-- q13&#45;&gt;q14 -->
<g id="edge_q13_q14_a" class="edge">
<title>q13&#45;&gt;q14</title>
<path fill="none" stroke="black" d="M911.49,-181.9C921.98,-180.92 934.59,-179.73 945.76,-178.69"/>
<polygon fill="black" stroke="black" points="945.83,-180.44 950.64,-178.23 945.5,-176.95 945.83,-180.44"/>
<text text-anchor="middle" x="931.75" y="-182.74" font-family="Arial" font-size="10.00">a</text>
</g>
<!-- q15 -->
<g id="node10" class="node">
<title>q15</title>
<ellipse fill="none" stroke="black" cx="1062.79" cy="-112" rx="23.06" ry="23.06"/>
<text text-anchor="middle" x="1062.79" y="-107.72" font-family="Arial" font-size="12.00">q15</text>
</g>
<!-- q14&#45;&gt;q15 -->
<g id="edge_q14_q15_b" class="edge">
<title>q14&#45;&gt;q15</title>
<path fill="none" stroke="black" d="M994.53,-162.43C1007.43,-152.75 1024.88,-139.67 1038.77,-129.26"/>
<polygon fill="black" stroke="black" points="1039.55,-130.86 1042.5,-126.46 1037.45,-128.06 1039.55,-130.86"/>
<text text-anchor="middle" x="1019.11" y="-148.42" font-family="Arial" font-size="10.00">b</text>
</g>
<!-- q16 -->
<g id="node11" class="node">
<title>q16</title>
<ellipse fill="none" stroke="black" cx="1062.79" cy="-176" rx="23.06" ry="23.06"/>
<text text-anchor="middle" x="1062.79" y="-171.72" font-family="Arial" font-size="12.00">q16</text>
</g>
<!-- q14&#45;&gt;q16 -->
<g id="edge_q14_q16_a" class="edge">
<title>q14&#45;&gt;q16</title>
<path fill="none" stroke="black" d="M998.85,-176C1009.34,-176 1021.96,-176 1033.13,-176"/>
<polygon fill="black" stroke="black" points="1033,-177.75 1038,-176 1033,-174.25 1033,-177.75"/>
<text text-anchor="middle" x="1019.11" y="-178.5" font-family="Arial" font-size="10.00">a</text>
</g>
<!-- q17 -->
<g id="node12" class="node">
<title>q17</title>
<ellipse fill="none" stroke="black" cx="1150.15" cy="-112" rx="23.06" ry="23.06"/>
<text text-anchor="middle" x="1150.15" y="-107.72" font-family="Arial" font-size="12.00">q17</text>
</g>
<!-- q15&#45;&gt;q17 -->
<g id="edge_q15_q17_b" class="edge">
<title>q15&#45;&gt;q17</title>
<path fill="none" stroke="black" d="M1086.22,-112C1096.7,-112 1109.32,-112 1120.49,-112"/>
<polygon fill="black" stroke="black" points="1120.36,-113.75 1125.36,-112 1120.36,-110.25 1120.36,-113.75"/>
<text text-anchor="middle" x="1106.47" y="-114.5" font-family="Arial" font-size="10.00">b</text>
</g>
<!-- q8 -->
<g id="node21" class="node">
<title>q8</title>
<ellipse fill="none" stroke="black" cx="465.09" cy="-140" rx="18.76" ry="18.76"/>
<text text-anchor="middle" x="465.09" y="-135.72" font-family="Arial" font-size="12.00">q8</text>
</g>
<!-- q15&#45;&gt;q8 -->
<g id="edge_q15_q8_a" class="edge">
<title>q15&#45;&gt;q8</title>
<path fill="none" stroke="black" d="M1039.75,-108.39C1022.55,-105.89 998.03,-103 976.43,-103 547.16,-103 547.16,-103 547.16,-103 524.5,-103 501.24,-115.11 485.47,-125.47"/>
<polygon fill="black" stroke="black" points="484.83,-123.79 481.68,-128.05 486.8,-126.69 484.83,-123.79"/>
<text text-anchor="middle" x="757.02" y="-105.5" font-family="Arial" font-size="10.00">a</text>
</g>
<!-- q16&#45;&gt;q12 -->
<g id="edge_q16_q12_b" class="edge">
<title>q16&#45;&gt;q12</title>
<path fill="none" stroke="black" d="M1052.5,-197.13C1045.82,-209.7 1035.55,-224.76 1021.73,-233 979.22,-258.35 960.53,-243.11 911.12,-246 890.66,-247.2 884.4,-252.63 865.01,-246 848.67,-240.41 833.28,-228.71 821.76,-218.14"/>
<polygon fill="black" stroke="black" points="823.01,-216.91 818.17,-214.74 820.6,-219.45 823.01,-216.91"/>
<text text-anchor="middle" x="931.75" y="-248.3" font-family="Arial" font-size="10.00">b</text>
</g>
<!-- q18 -->
<g id="node13" class="node">
<title>q18</title>
<ellipse fill="none" stroke="black" cx="1150.15" cy="-176" rx="23.06" ry="23.06"/>
<text text-anchor="middle" x="1150.15" y="-171.72" font-family="Arial" font-size="12.00">q18</text>
</g>
<!-- q16&#45;&gt;q18 -->
<g id="edge_q16_q18_a" class="edge">
<title>q16&#45;&gt;q18</title>
<path fill="none" stroke="black" d="M1086.22,-176C1096.7,-176 1109.32,-176 1120.49,-176"/>
<polygon fill="black" stroke="black" points="1120.36,-177.75 1125.36,-176 1120.36,-174.25 1120.36,-177.75"/>
<text text-anchor="middle" x="1106.47" y="-178.5" font-family="Arial" font-size="10.00">a</text>
</g>
<!-- q19 -->
<g id="node14" class="node">
<title>q19</title>
<ellipse fill="none" stroke="black" cx="1241.51" cy="-143" rx="23.06" ry="23.06"/>
<ellipse fill="none" stroke="black" cx="1241.51" cy="-143" rx="27.06" ry="27.06"/>
<text text-anchor="middle" x="1241.51" y="-138.72" font-family="Arial" font-size="12.00">q19</text>
</g>
<!-- q17&#45;&gt;q19 -->
<g id="edge_q17_q19_b" class="edge">
<title>q17&#45;&gt;q19</title>
<path fill="none" stroke="black" d="M1172.33,-119.35C1183.5,-123.22 1197.43,-128.05 1209.77,-132.34"/>
<polygon fill="black" stroke="black" points="1208.95,-133.91 1214.25,-133.89 1210.1,-130.6 1208.95,-133.91"/>
<text text-anchor="middle" x="1193.83" y="-130" font-family="Arial" font-size="10.00">b</text>
</g>
<!-- q17&#45;&gt;q8 -->
<g id="edge_q17_q8_a" class="edge">
<title>q17&#45;&gt;q8</title>
<path fill="none" stroke="black" d="M1133.49,-95.58C1117.52,-80.67 1091.24,-61 1063.79,-61 547.16,-61 547.16,-61 547.16,-61 514.55,-61 490.15,-94.19 477.02,-117.55"/>
<polygon fill="black" stroke="black" points="475.5,-116.69 474.65,-121.92 478.57,-118.36 475.5,-116.69"/>
<text text-anchor="middle" x="800.7" y="-63.5" font-family="Arial" font-size="10.00">a</text>
</g>
<!-- q18&#45;&gt;q13 -->
<g id="edge_q18_q13_b" class="edge">
<title>q18&#45;&gt;q13</title>
<path fill="none" stroke="black" d="M1130.38,-188.43C1118.24,-195.71 1101.78,-204.2 1085.84,-208 1028.14,-221.76 1010.72,-218.69 952.37,-208 939.79,-205.69 926.46,-201.01 915.3,-196.39"/>
<polygon fill="black" stroke="black" points="916.01,-194.79 910.73,-194.44 914.64,-198.01 916.01,-194.79"/>
<text text-anchor="middle" x="1019.11" y="-219.69" font-family="Arial" font-size="10.00">b</text>
</g>
<!-- q18&#45;&gt;q19 -->
<g id="edge_q18_q19_a" class="edge">
<title>q18&#45;&gt;q19</title>
<path fill="none" stroke="black" d="M1172.33,-168.18C1183.5,-164.05 1197.43,-158.91 1209.77,-154.35"/>
<polygon fill="black" stroke="black" points="1210.18,-156.07 1214.26,-152.69 1208.97,-152.78 1210.18,-156.07"/>
<text text-anchor="middle" x="1193.83" y="-162.99" font-family="Arial" font-size="10.00">a</text>
</g>
<!-- q19&#45;&gt;q19 -->
<g id="edge_q19_q19_a_b" class="edge">
<title>q19&#45;&gt;q19</title>
<path fill="none" stroke="black" d="M1232.63,-168.93C1232.12,-179.33 1235.09,-188.06 1241.51,-188.06 1246.53,-188.06 1249.44,-182.73 1250.23,-175.44"/>
<polygon fill="black" stroke="black" points="1251.98,-175.48 1250.36,-170.44 1248.48,-175.39 1251.98,-175.48"/>
<text text-anchor="middle" x="1241.51" y="-190.56" font-family="Arial" font-size="10.00">a,b</text>
</g>
<!-- q2&#45;&gt;T_bottom -->
<g id="edge_q2_T_bottom_a" class="edge">
<title>q2&#45;&gt;T_bottom</title>
<path fill="none" stroke="black" d="M152.88,-165.71C165.93,-183.78 190.4,-211 219.51,-211 219.51,-211 219.51,-211 387.31,-211 405.37,-211 425.69,-208.78 440.89,-206.68"/>
<polygon fill="black" stroke="black" points="440.87,-208.45 445.57,-206.01 440.37,-204.99 440.87,-208.45"/>
<text text-anchor="middle" x="299.29" y="-213.5" font-family="Arial" font-size="10.00">a</text>
</g>
<!-- q2&#45;&gt;q3 -->
<g id="edge_q2_q3_b" class="edge">
<title>q2&#45;&gt;q3</title>
<path fill="none" stroke="black" d="M159.78,-144.01C170.54,-140.22 184.58,-135.29 196.34,-131.15"/>
<polygon fill="black" stroke="black" points="196.69,-132.88 200.83,-129.57 195.53,-129.58 196.69,-132.88"/>
<text text-anchor="middle" x="181.13" y="-139.81" font-family="Arial" font-size="10.00">b</text>
</g>
<!-- q4 -->
<g id="node17" class="node">
<title>q4</title>
<ellipse fill="none" stroke="black" cx="299.29" cy="-95" rx="18.76" ry="18.76"/>
<text text-anchor="middle" x="299.29" y="-90.72" font-family="Arial" font-size="12.00">q4</text>
</g>
<!-- q3&#45;&gt;q4 -->
<g id="edge_q3_q4_a" class="edge">
<title>q3&#45;&gt;q4</title>
<path fill="none" stroke="black" d="M237.7,-115.2C243.77,-112.42 250.77,-109.4 257.28,-107 262.9,-104.93 269.06,-102.97 274.85,-101.26"/>
<polygon fill="black" stroke="black" points="275.18,-102.99 279.5,-99.92 274.21,-99.62 275.18,-102.99"/>
<text text-anchor="middle" x="259.9" y="-109.5" font-family="Arial" font-size="10.00">a</text>
</g>
<!-- q5 -->
<g id="node18" class="node">
<title>q5</title>
<ellipse fill="none" stroke="black" cx="299.29" cy="-151" rx="18.76" ry="18.76"/>
<text text-anchor="middle" x="299.29" y="-146.72" font-family="Arial" font-size="12.00">q5</text>
</g>
<!-- q3&#45;&gt;q5 -->
<g id="edge_q3_q5_b" class="edge">
<title>q3&#45;&gt;q5</title>
<path fill="none" stroke="black" d="M238.55,-129.21C249.39,-133.17 263.55,-138.33 275.36,-142.64"/>
<polygon fill="black" stroke="black" points="274.58,-144.22 279.88,-144.28 275.78,-140.93 274.58,-144.22"/>
<text text-anchor="middle" x="259.9" y="-140.34" font-family="Arial" font-size="10.00">b</text>
</g>
<!-- q4&#45;&gt;T_top -->
<g id="edge_q4_T_top_a" class="edge">
<title>q4&#45;&gt;T_top</title>
<path fill="none" stroke="black" d="M314.85,-83.72C327.88,-74.3 347.91,-61.39 367.55,-55 391.57,-47.18 420.59,-45.44 440.51,-45.33"/>
<polygon fill="black" stroke="black" points="440.37,-47.08 445.38,-45.35 440.38,-43.58 440.37,-47.08"/>
<text text-anchor="middle" x="386.31" y="-57.5" font-family="Arial" font-size="10.00">a</text>
</g>
<!-- q6 -->
<g id="node19" class="node">
<title>q6</title>
<ellipse fill="none" stroke="black" cx="386.31" cy="-95" rx="18.76" ry="18.76"/>
<text text-anchor="middle" x="386.31" y="-90.72" font-family="Arial" font-size="12.00">q6</text>
</g>
<!-- q4&#45;&gt;q6 -->
<g id="edge_q4_q6_b" class="edge">
<title>q4&#45;&gt;q6</title>
<path fill="none" stroke="black" d="M318.32,-95C330.72,-95 347.34,-95 360.92,-95"/>
<polygon fill="black" stroke="black" points="360.8,-96.75 365.8,-95 360.79,-93.25 360.8,-96.75"/>
<text text-anchor="middle" x="342.8" y="-97.5" font-family="Arial" font-size="10.00">b</text>
</g>
<!-- q7 -->
<g id="node20" class="node">
<title>q7</title>
<ellipse fill="none" stroke="black" cx="386.31" cy="-151" rx="18.76" ry="18.76"/>
<text text-anchor="middle" x="386.31" y="-146.72" font-family="Arial" font-size="12.00">q7</text>
</g>
<!-- q5&#45;&gt;q7 -->
<g id="edge_q5_q7_a_b" class="edge">
<title>q5&#45;&gt;q7</title>
<path fill="none" stroke="black" d="M318.32,-151C330.72,-151 347.34,-151 360.92,-151"/>
<polygon fill="black" stroke="black" points="360.8,-152.75 365.8,-151 360.79,-149.25 360.8,-152.75"/>
<text text-anchor="middle" x="342.8" y="-153.5" font-family="Arial" font-size="10.00">a,b</text>
</g>
<!-- q6&#45;&gt;T_top -->
<g id="edge_q6_T_top_b" class="edge">
<title>q6&#45;&gt;T_top</title>
<path fill="none" stroke="black" d="M402.48,-85.32C414.34,-77.75 430.92,-67.17 443.9,-58.89"/>
<polygon fill="black" stroke="black" points="444.66,-60.47 447.94,-56.31 442.78,-57.52 444.66,-60.47"/>
<text text-anchor="middle" x="425.7" y="-74.47" font-family="Arial" font-size="10.00">b</text>
</g>
<!-- q6&#45;&gt;q8 -->
<g id="edge_q6_q8_a" class="edge">
<title>q6&#45;&gt;q8</title>
<path fill="none" stroke="black" d="M402.85,-104.11C414.33,-110.83 430.08,-120.07 442.74,-127.49"/>
<polygon fill="black" stroke="black" points="441.81,-128.97 447.01,-129.99 443.58,-125.95 441.81,-128.97"/>
<text text-anchor="middle" x="425.7" y="-121.35" font-family="Arial" font-size="10.00">a</text>
</g>
<!-- q7&#45;&gt;T_bottom -->
<g id="edge_q7_T_bottom_a" class="edge">
<title>q7&#45;&gt;T_bottom</title>
<path fill="none" stroke="black" d="M402.48,-161.27C414.41,-169.35 431.14,-180.68 444.15,-189.49"/>
<polygon fill="black" stroke="black" points="443.1,-190.9 448.22,-192.25 445.06,-188 443.1,-190.9"/>
<text text-anchor="middle" x="425.7" y="-181.06" font-family="Arial" font-size="10.00">a</text>
</g>
<!-- q7&#45;&gt;q8 -->
<g id="edge_q7_q8_b" class="edge">
<title>q7&#45;&gt;q8</title>
<path fill="none" stroke="black" d="M405.12,-148.45C415.42,-146.97 428.51,-145.1 439.75,-143.49"/>
<polygon fill="black" stroke="black" points="439.91,-145.23 444.62,-142.79 439.42,-141.77 439.91,-145.23"/>
<text text-anchor="middle" x="425.7" y="-148.33" font-family="Arial" font-size="10.00">b</text>
</g>
<!-- q8&#45;&gt;q10 -->
<g id="edge_q8_q10_b" class="edge">
<title>q8&#45;&gt;q10</title>
<path fill="none" stroke="black" d="M481.34,-149.78C493.08,-157.31 509.54,-167.87 523.06,-176.54"/>
<polygon fill="black" stroke="black" points="521.84,-177.84 526.99,-179.07 523.73,-174.89 521.84,-177.84"/>
<text text-anchor="middle" x="504.48" y="-168.5" font-family="Arial" font-size="10.00">b</text>
</g>
<!-- q8&#45;&gt;q9 -->
<g id="edge_q8_q9_a" class="edge">
<title>q8&#45;&gt;q9</title>
<path fill="none" stroke="black" d="M474.57,-156.64C484.61,-175.01 502.8,-204.56 525.1,-224 549.26,-245.06 558.07,-249.45 589.21,-257 594.59,-258.3 600.48,-258.63 606.07,-258.46"/>
<polygon fill="black" stroke="black" points="606.07,-260.21 610.95,-258.15 605.84,-256.72 606.07,-260.21"/>
<text text-anchor="middle" x="548.16" y="-254.48" font-family="Arial" font-size="10.00">a</text>
</g>
<!-- q9&#45;&gt;q10 -->
<g id="edge_q9_q10_b" class="edge">
<title>q9&#45;&gt;q10</title>
<path fill="none" stroke="black" d="M612.95,-249.85C605.26,-247.06 596.35,-243.13 589.21,-238 580.53,-231.75 572.46,-223.27 565.87,-215.29"/>
<polygon fill="black" stroke="black" points="567.41,-214.41 562.92,-211.6 564.67,-216.59 567.41,-214.41"/>
<text text-anchor="middle" x="591.84" y="-243.78" font-family="Arial" font-size="10.00">b</text>
</g>
<!-- q9&#45;&gt;q11 -->
<g id="edge_q9_q11_a" class="edge">
<title>q9&#45;&gt;q11</title>
<path fill="none" stroke="black" d="M647.01,-244.36C658.96,-235.76 676.01,-223.49 689.75,-213.6"/>
<polygon fill="black" stroke="black" points="690.77,-215.02 693.81,-210.68 688.73,-212.18 690.77,-215.02"/>
<text text-anchor="middle" x="670.61" y="-230.24" font-family="Arial" font-size="10.00">a</text>
</g>
<!-- start -->
<g id="node23" class="node">
<title>start</title>
<ellipse fill="black" stroke="black" cx="3.6" cy="-121" rx="3.6" ry="3.6"/>
</g>
<!-- start&#45;&gt;q0 -->
<g id="edge1" class="edge">
<title>start&#45;&gt;q0</title>
<path fill="none" stroke="black" d="M7.68,-121C13.34,-121 25.85,-121 37.44,-121"/>
<polygon fill="black" stroke="black" points="37.22,-122.75 42.22,-121 37.22,-119.25 37.22,-122.75"/>
</g>
</g>
</svg>
