<?xml version="1.0" encoding="UTF-8" standalone="no"?>
<!DOCTYPE svg PUBLIC "-//W3C//DTD SVG 1.1//EN"
 "http://www.w3.org/Graphics/SVG/1.1/DTD/svg11.dtd">
<!-- Generated by graphviz version 12.2.1 (20241206.2353)
 -->
<!-- Pages: 1 -->
<svg width="1441pt" height="371pt"
 viewBox="0.00 0.00 1440.92 371.37" xmlns="http://www.w3.org/2000/svg" xmlns:xlink="http://www.w3.org/1999/xlink">
<g id="graph0" class="graph" transform="scale(1 1) rotate(0) translate(4 367.37)">
<polygon fill="white" stroke="none" points="-4,4 -4,-367.37 1436.92,-367.37 1436.92,4 -4,4"/>
<!-- q0 -->
<g id="node1" class="node">
<title>q0</title>
<ellipse fill="none" stroke="black" cx="59.32" cy="-249.6" rx="21.6" ry="21.6"/>
<text text-anchor="middle" x="59.32" y="-245.33" font-family="Arial" font-size="12.00">q0</text>
</g>
<!-- q0&#45;&gt;q0 -->
<g id="edge6" class="edge">
<title>q0&#45;&gt;q0</title>
<path fill="none" stroke="black" d="M51.98,-270.38C51.08,-280.38 53.52,-289.2 59.32,-289.2 63.85,-289.2 66.33,-283.81 66.77,-276.69"/>
<polygon fill="black" stroke="black" points="68.52,-276.86 66.68,-271.89 65.02,-276.92 68.52,-276.86"/>
<text text-anchor="middle" x="59.32" y="-291.7" font-family="Arial" font-size="10.00">1</text>
</g>
<!-- q1 -->
<g id="node2" class="node">
<title>q1</title>
<ellipse fill="none" stroke="black" cx="143.77" cy="-249.6" rx="21.6" ry="21.6"/>
<text text-anchor="middle" x="143.77" y="-245.33" font-family="Arial" font-size="12.00">q1</text>
</g>
<!-- q0&#45;&gt;q1 -->
<g id="edge7" class="edge">
<title>q0&#45;&gt;q1</title>
<path fill="none" stroke="black" d="M81.13,-249.6C91.49,-249.6 104.17,-249.6 115.32,-249.6"/>
<polygon fill="black" stroke="black" points="115.17,-251.35 120.17,-249.6 115.17,-247.85 115.17,-251.35"/>
<text text-anchor="middle" x="101.54" y="-252.1" font-family="Arial" font-size="10.00">0</text>
</g>
<!-- q1&#45;&gt;q1 -->
<g id="edge8" class="edge">
<title>q1&#45;&gt;q1</title>
<path fill="none" stroke="black" d="M136.09,-269.97C135.02,-280.14 137.58,-289.2 143.77,-289.2 148.6,-289.2 151.22,-283.67 151.63,-276.4"/>
<polygon fill="black" stroke="black" points="153.38,-276.44 151.5,-271.49 149.88,-276.53 153.38,-276.44"/>
<text text-anchor="middle" x="143.77" y="-291.7" font-family="Arial" font-size="10.00">1</text>
</g>
<!-- q2 -->
<g id="node3" class="node">
<title>q2</title>
<ellipse fill="none" stroke="black" cx="228.22" cy="-249.6" rx="21.6" ry="21.6"/>
<text text-anchor="middle" x="228.22" y="-245.33" font-family="Arial" font-size="12.00">q2</text>
</g>
<!-- q1&#45;&gt;q2 -->
<g id="edge9" class="edge">
<title>q1&#45;&gt;q2</title>
<path fill="none" stroke="black" d="M165.58,-249.6C175.94,-249.6 188.62,-249.6 199.77,-249.6"/>
<polygon fill="black" stroke="black" points="199.62,-251.35 204.62,-249.6 199.62,-247.85 199.62,-251.35"/>
<text text-anchor="middle" x="185.99" y="-252.1" font-family="Arial" font-size="10.00">0</text>
</g>
<!-- q3 -->
<g id="node4" class="node">
<title>q3</title>
<ellipse fill="none" stroke="black" cx="312.67" cy="-206.6" rx="21.6" ry="21.6"/>
<text text-anchor="middle" x="312.67" y="-202.32" font-family="Arial" font-size="12.00">q3</text>
</g>
<!-- q2&#45;&gt;q3 -->
<g id="edge10" class="edge">
<title>q2&#45;&gt;q3</title>
<path fill="none" stroke="black" d="M247.93,-239.84C259.63,-233.74 274.82,-225.82 287.44,-219.24"/>
<polygon fill="black" stroke="black" points="288.07,-220.88 291.69,-217.02 286.45,-217.78 288.07,-220.88"/>
<text text-anchor="middle" x="270.44" y="-231.89" font-family="Arial" font-size="10.00">1</text>
</g>
<!-- q4 -->
<g id="node5" class="node">
<title>q4</title>
<ellipse fill="none" stroke="black" cx="397.12" cy="-263.6" rx="21.6" ry="21.6"/>
<text text-anchor="middle" x="397.12" y="-259.33" font-family="Arial" font-size="12.00">q4</text>
</g>
<!-- q2&#45;&gt;q4 -->
<g id="edge11" class="edge">
<title>q2&#45;&gt;q4</title>
<path fill="none" stroke="black" d="M250.02,-251.34C280.09,-253.87 335.72,-258.53 368.98,-261.32"/>
<polygon fill="black" stroke="black" points="368.68,-263.05 373.81,-261.73 368.98,-259.57 368.68,-263.05"/>
<text text-anchor="middle" x="312.67" y="-260.72" font-family="Arial" font-size="10.00">0</text>
</g>
<!-- q3&#45;&gt;q4 -->
<g id="edge13" class="edge">
<title>q3&#45;&gt;q4</title>
<path fill="none" stroke="black" d="M331.16,-218.69C343.51,-227.23 360.17,-238.75 373.53,-247.98"/>
<polygon fill="black" stroke="black" points="372.31,-249.26 377.41,-250.67 374.3,-246.39 372.31,-249.26"/>
<text text-anchor="middle" x="354.89" y="-239.31" font-family="Arial" font-size="10.00">0</text>
</g>
<!-- q5 -->
<g id="node6" class="node">
<title>q5</title>
<ellipse fill="none" stroke="black" cx="481.57" cy="-204.6" rx="21.6" ry="21.6"/>
<text text-anchor="middle" x="481.57" y="-200.32" font-family="Arial" font-size="12.00">q5</text>
</g>
<!-- q3&#45;&gt;q5 -->
<g id="edge12" class="edge">
<title>q3&#45;&gt;q5</title>
<path fill="none" stroke="black" d="M334.47,-206.35C364.45,-205.99 419.87,-205.33 453.16,-204.93"/>
<polygon fill="black" stroke="black" points="453.02,-206.68 457.99,-204.87 452.97,-203.18 453.02,-206.68"/>
<text text-anchor="middle" x="397.12" y="-208.33" font-family="Arial" font-size="10.00">1</text>
</g>
<!-- q7 -->
<g id="node8" class="node">
<title>q7</title>
<ellipse fill="none" stroke="black" cx="481.57" cy="-321.6" rx="21.6" ry="21.6"/>
<text text-anchor="middle" x="481.57" y="-317.33" font-family="Arial" font-size="12.00">q7</text>
</g>
<!-- q4&#45;&gt;q7 -->
<g id="edge14" class="edge">
<title>q4&#45;&gt;q7</title>
<path fill="none" stroke="black" d="M415.2,-275.62C427.61,-284.35 444.53,-296.25 458.04,-305.75"/>
<polygon fill="black" stroke="black" points="456.89,-307.08 461.99,-308.53 458.9,-304.22 456.89,-307.08"/>
<text text-anchor="middle" x="439.34" y="-296.84" font-family="Arial" font-size="10.00">0</text>
</g>
<!-- T_q4_1 -->
<g id="node24" class="node">
<title>T_q4_1</title>
<ellipse fill="none" stroke="black" cx="481.57" cy="-263.6" rx="18" ry="18"/>
<text text-anchor="middle" x="481.57" y="-260.1" font-family="Arial" font-size="10.00">T</text>
</g>
<!-- q4&#45;&gt;T_q4_1 -->
<g id="edge1" class="edge">
<title>q4&#45;&gt;T_q4_1</title>
<path fill="none" stroke="black" d="M418.93,-263.6C430.44,-263.6 444.79,-263.6 456.75,-263.6"/>
<polygon fill="black" stroke="black" points="456.6,-265.35 461.6,-263.6 456.6,-261.85 456.6,-265.35"/>
<text text-anchor="middle" x="439.34" y="-266.1" font-family="Arial" font-size="10.00">1</text>
</g>
<!-- q6 -->
<g id="node7" class="node">
<title>q6</title>
<ellipse fill="none" stroke="black" cx="566.02" cy="-213.6" rx="21.6" ry="21.6"/>
<text text-anchor="middle" x="566.02" y="-209.32" font-family="Arial" font-size="12.00">q6</text>
</g>
<!-- q5&#45;&gt;q6 -->
<g id="edge16" class="edge">
<title>q5&#45;&gt;q6</title>
<path fill="none" stroke="black" d="M503.38,-206.87C513.82,-208.01 526.61,-209.41 537.83,-210.63"/>
<polygon fill="black" stroke="black" points="537.56,-212.36 542.72,-211.17 537.94,-208.88 537.56,-212.36"/>
<text text-anchor="middle" x="523.79" y="-211.87" font-family="Arial" font-size="10.00">0</text>
</g>
<!-- q14 -->
<g id="node15" class="node">
<title>q14</title>
<ellipse fill="none" stroke="black" cx="650.47" cy="-81.6" rx="21.6" ry="21.6"/>
<text text-anchor="middle" x="650.47" y="-77.32" font-family="Arial" font-size="12.00">q14</text>
</g>
<!-- q5&#45;&gt;q14 -->
<g id="edge15" class="edge">
<title>q5&#45;&gt;q14</title>
<path fill="none" stroke="black" d="M499.49,-192.13C529.86,-169.75 593.57,-122.8 627.35,-97.9"/>
<polygon fill="black" stroke="black" points="628.3,-99.38 631.29,-95 626.22,-96.56 628.3,-99.38"/>
<text text-anchor="middle" x="566.02" y="-159.83" font-family="Arial" font-size="10.00">1</text>
</g>
<!-- q8 -->
<g id="node9" class="node">
<title>q8</title>
<ellipse fill="none" stroke="black" cx="650.47" cy="-316.6" rx="21.6" ry="21.6"/>
<text text-anchor="middle" x="650.47" y="-312.33" font-family="Arial" font-size="12.00">q8</text>
</g>
<!-- q6&#45;&gt;q8 -->
<g id="edge17" class="edge">
<title>q6&#45;&gt;q8</title>
<path fill="none" stroke="black" d="M584.61,-224.77C593.22,-230.82 603.33,-238.84 610.87,-247.6 622.07,-260.62 631.55,-277.39 638.3,-291.14"/>
<polygon fill="black" stroke="black" points="636.64,-291.72 640.38,-295.47 639.79,-290.2 636.64,-291.72"/>
<text text-anchor="middle" x="608.24" y="-250.1" font-family="Arial" font-size="10.00">1</text>
</g>
<!-- q9 -->
<g id="node10" class="node">
<title>q9</title>
<ellipse fill="none" stroke="black" cx="819.37" cy="-223.6" rx="21.6" ry="21.6"/>
<text text-anchor="middle" x="819.37" y="-219.32" font-family="Arial" font-size="12.00">q9</text>
</g>
<!-- q6&#45;&gt;q9 -->
<g id="edge18" class="edge">
<title>q6&#45;&gt;q9</title>
<path fill="none" stroke="black" d="M588.02,-214.44C633.41,-216.24 740.65,-220.51 791.16,-222.52"/>
<polygon fill="black" stroke="black" points="791.03,-224.26 796.1,-222.71 791.17,-220.77 791.03,-224.26"/>
<text text-anchor="middle" x="692.69" y="-221.1" font-family="Arial" font-size="10.00">0</text>
</g>
<!-- q10 -->
<g id="node11" class="node">
<title>q10</title>
<ellipse fill="none" stroke="black" cx="566.02" cy="-317.6" rx="21.6" ry="21.6"/>
<text text-anchor="middle" x="566.02" y="-313.33" font-family="Arial" font-size="12.00">q10</text>
</g>
<!-- q7&#45;&gt;q10 -->
<g id="edge20" class="edge">
<title>q7&#45;&gt;q10</title>
<path fill="none" stroke="black" d="M503.38,-320.59C513.82,-320.08 526.61,-319.46 537.83,-318.92"/>
<polygon fill="black" stroke="black" points="537.8,-320.67 542.71,-318.68 537.63,-317.18 537.8,-320.67"/>
<text text-anchor="middle" x="523.79" y="-322.22" font-family="Arial" font-size="10.00">0</text>
</g>
<!-- q12 -->
<g id="node13" class="node">
<title>q12</title>
<ellipse fill="none" stroke="black" cx="734.92" cy="-316.6" rx="21.6" ry="21.6"/>
<text text-anchor="middle" x="734.92" y="-312.33" font-family="Arial" font-size="12.00">q12</text>
</g>
<!-- q7&#45;&gt;q12 -->
<g id="edge19" class="edge">
<title>q7&#45;&gt;q12</title>
<path fill="none" stroke="black" d="M500.85,-331.97C512.83,-338.14 529.05,-345.39 544.42,-348.6 561.09,-352.08 650.47,-352.84 672.07,-347.6 685.59,-344.32 699.53,-337.66 710.75,-331.35"/>
<polygon fill="black" stroke="black" points="711.6,-332.89 715.04,-328.87 709.84,-329.86 711.6,-332.89"/>
<text text-anchor="middle" x="608.24" y="-353.87" font-family="Arial" font-size="10.00">1</text>
</g>
<!-- q8&#45;&gt;q10 -->
<g id="edge22" class="edge">
<title>q8&#45;&gt;q10</title>
<path fill="none" stroke="black" d="M628.38,-316.86C617.97,-316.98 605.29,-317.14 594.17,-317.27"/>
<polygon fill="black" stroke="black" points="594.32,-315.52 589.34,-317.33 594.36,-319.02 594.32,-315.52"/>
<text text-anchor="middle" x="608.24" y="-319.63" font-family="Arial" font-size="10.00">0</text>
</g>
<!-- q8&#45;&gt;q12 -->
<g id="edge21" class="edge">
<title>q8&#45;&gt;q12</title>
<path fill="none" stroke="black" d="M672.28,-316.6C682.64,-316.6 695.32,-316.6 706.47,-316.6"/>
<polygon fill="black" stroke="black" points="706.32,-318.35 711.32,-316.6 706.32,-314.85 706.32,-318.35"/>
<text text-anchor="middle" x="692.69" y="-319.1" font-family="Arial" font-size="10.00">1</text>
</g>
<!-- q9&#45;&gt;q12 -->
<g id="edge23" class="edge">
<title>q9&#45;&gt;q12</title>
<path fill="none" stroke="black" d="M798.91,-231.34C790.68,-235.31 781.42,-240.76 774.52,-247.6 762.23,-259.77 752.69,-276.68 746.17,-290.71"/>
<polygon fill="black" stroke="black" points="744.63,-289.86 744.18,-295.14 747.82,-291.3 744.63,-289.86"/>
<text text-anchor="middle" x="777.14" y="-250.1" font-family="Arial" font-size="10.00">1</text>
</g>
<!-- q17 -->
<g id="node18" class="node">
<title>q17</title>
<ellipse fill="none" stroke="black" cx="903.82" cy="-121.6" rx="21.6" ry="21.6"/>
<text text-anchor="middle" x="903.82" y="-117.32" font-family="Arial" font-size="12.00">q17</text>
</g>
<!-- q9&#45;&gt;q17 -->
<g id="edge24" class="edge">
<title>q9&#45;&gt;q17</title>
<path fill="none" stroke="black" d="M833.62,-207.21C847.72,-189.77 870.09,-162.1 885.56,-142.96"/>
<polygon fill="black" stroke="black" points="886.6,-144.45 888.38,-139.46 883.88,-142.25 886.6,-144.45"/>
<text text-anchor="middle" x="861.59" y="-178.16" font-family="Arial" font-size="10.00">0</text>
</g>
<!-- q10&#45;&gt;q8 -->
<g id="edge25" class="edge">
<title>q10&#45;&gt;q8</title>
<path fill="none" stroke="black" d="M586.04,-326.53C593.68,-329.13 602.61,-330.95 610.87,-329.6 615.18,-328.89 619.66,-327.77 623.98,-326.47"/>
<polygon fill="black" stroke="black" points="624.49,-328.15 628.71,-324.94 623.41,-324.82 624.49,-328.15"/>
<text text-anchor="middle" x="608.24" y="-332.55" font-family="Arial" font-size="10.00">1</text>
</g>
<!-- q11 -->
<g id="node12" class="node">
<title>q11</title>
<ellipse fill="none" stroke="black" cx="650.47" cy="-163.6" rx="21.6" ry="21.6"/>
<text text-anchor="middle" x="650.47" y="-159.32" font-family="Arial" font-size="12.00">q11</text>
</g>
<!-- q10&#45;&gt;q11 -->
<g id="edge26" class="edge">
<title>q10&#45;&gt;q11</title>
<path fill="none" stroke="black" d="M580.91,-301.66C590.22,-290.43 602.29,-274.76 610.87,-259.6 623.48,-237.31 634.02,-210.07 640.88,-190.31"/>
<polygon fill="black" stroke="black" points="642.53,-190.9 642.49,-185.61 639.21,-189.77 642.53,-190.9"/>
<text text-anchor="middle" x="608.24" y="-270.56" font-family="Arial" font-size="10.00">0</text>
</g>
<!-- q11&#45;&gt;q17 -->
<g id="edge27" class="edge">
<title>q11&#45;&gt;q17</title>
<path fill="none" stroke="black" d="M670.58,-155.04C682.61,-150.03 698.59,-144.02 713.32,-140.6 770.1,-127.43 838.55,-123.39 875.67,-122.15"/>
<polygon fill="black" stroke="black" points="875.33,-123.91 880.27,-122.01 875.22,-120.41 875.33,-123.91"/>
<text text-anchor="middle" x="777.14" y="-132.44" font-family="Arial" font-size="10.00">0</text>
</g>
<!-- T_q11_1 -->
<g id="node25" class="node">
<title>T_q11_1</title>
<ellipse fill="none" stroke="black" cx="734.92" cy="-167.6" rx="18" ry="18"/>
<text text-anchor="middle" x="734.92" y="-164.1" font-family="Arial" font-size="10.00">T</text>
</g>
<!-- q11&#45;&gt;T_q11_1 -->
<g id="edge2" class="edge">
<title>q11&#45;&gt;T_q11_1</title>
<path fill="none" stroke="black" d="M672.28,-164.61C683.79,-165.17 698.14,-165.86 710.1,-166.44"/>
<polygon fill="black" stroke="black" points="709.88,-168.19 714.95,-166.68 710.04,-164.69 709.88,-168.19"/>
<text text-anchor="middle" x="692.69" y="-168.22" font-family="Arial" font-size="10.00">1</text>
</g>
<!-- q12&#45;&gt;q9 -->
<g id="edge29" class="edge">
<title>q12&#45;&gt;q9</title>
<path fill="none" stroke="black" d="M749.91,-300.82C763.77,-285.19 785.06,-261.18 800.21,-244.08"/>
<polygon fill="black" stroke="black" points="801.3,-245.49 803.31,-240.59 798.68,-243.17 801.3,-245.49"/>
<text text-anchor="middle" x="777.14" y="-275.39" font-family="Arial" font-size="10.00">0</text>
</g>
<!-- q13 -->
<g id="node14" class="node">
<title>q13</title>
<ellipse fill="none" stroke="black" cx="819.37" cy="-305.6" rx="21.6" ry="21.6"/>
<text text-anchor="middle" x="819.37" y="-301.33" font-family="Arial" font-size="12.00">q13</text>
</g>
<!-- q12&#45;&gt;q13 -->
<g id="edge28" class="edge">
<title>q12&#45;&gt;q13</title>
<path fill="none" stroke="black" d="M756.73,-313.82C767.17,-312.43 779.96,-310.72 791.18,-309.23"/>
<polygon fill="black" stroke="black" points="791.35,-310.97 796.07,-308.58 790.88,-307.5 791.35,-310.97"/>
<text text-anchor="middle" x="777.14" y="-313.93" font-family="Arial" font-size="10.00">1</text>
</g>
<!-- q13&#45;&gt;q17 -->
<g id="edge30" class="edge">
<title>q13&#45;&gt;q17</title>
<path fill="none" stroke="black" d="M829.19,-285.91C844.26,-252.29 874.91,-183.88 891.52,-146.82"/>
<polygon fill="black" stroke="black" points="892.99,-147.81 893.44,-142.53 889.8,-146.38 892.99,-147.81"/>
<text text-anchor="middle" x="861.59" y="-221.62" font-family="Arial" font-size="10.00">1</text>
</g>
<!-- T_q13_0 -->
<g id="node26" class="node">
<title>T_q13_0</title>
<ellipse fill="none" stroke="black" cx="903.82" cy="-305.6" rx="18" ry="18"/>
<text text-anchor="middle" x="903.82" y="-302.1" font-family="Arial" font-size="10.00">T</text>
</g>
<!-- q13&#45;&gt;T_q13_0 -->
<g id="edge3" class="edge">
<title>q13&#45;&gt;T_q13_0</title>
<path fill="none" stroke="black" d="M841.18,-305.6C852.69,-305.6 867.04,-305.6 879,-305.6"/>
<polygon fill="black" stroke="black" points="878.85,-307.35 883.85,-305.6 878.85,-303.85 878.85,-307.35"/>
<text text-anchor="middle" x="861.59" y="-308.1" font-family="Arial" font-size="10.00">0</text>
</g>
<!-- q15 -->
<g id="node16" class="node">
<title>q15</title>
<ellipse fill="none" stroke="black" cx="734.92" cy="-21.6" rx="21.6" ry="21.6"/>
<text text-anchor="middle" x="734.92" y="-17.32" font-family="Arial" font-size="12.00">q15</text>
</g>
<!-- q14&#45;&gt;q15 -->
<g id="edge31" class="edge">
<title>q14&#45;&gt;q15</title>
<path fill="none" stroke="black" d="M668.55,-69.17C681.05,-60.08 698.1,-47.66 711.66,-37.8"/>
<polygon fill="black" stroke="black" points="712.62,-39.26 715.63,-34.91 710.56,-36.43 712.62,-39.26"/>
<text text-anchor="middle" x="692.69" y="-55.9" font-family="Arial" font-size="10.00">1</text>
</g>
<!-- q16 -->
<g id="node17" class="node">
<title>q16</title>
<ellipse fill="none" stroke="black" cx="819.37" cy="-62.6" rx="21.6" ry="21.6"/>
<text text-anchor="middle" x="819.37" y="-58.32" font-family="Arial" font-size="12.00">q16</text>
</g>
<!-- q14&#45;&gt;q16 -->
<g id="edge32" class="edge">
<title>q14&#45;&gt;q16</title>
<path fill="none" stroke="black" d="M672.27,-79.23C702.34,-75.81 757.97,-69.48 791.23,-65.69"/>
<polygon fill="black" stroke="black" points="791.3,-67.44 796.07,-65.14 790.9,-63.97 791.3,-67.44"/>
<text text-anchor="middle" x="734.92" y="-76.8" font-family="Arial" font-size="10.00">0</text>
</g>
<!-- q15&#45;&gt;q16 -->
<g id="edge34" class="edge">
<title>q15&#45;&gt;q16</title>
<path fill="none" stroke="black" d="M754.63,-30.9C766.25,-36.68 781.31,-44.17 793.87,-50.42"/>
<polygon fill="black" stroke="black" points="792.84,-51.86 798.09,-52.52 794.4,-48.72 792.84,-51.86"/>
<text text-anchor="middle" x="777.14" y="-45.83" font-family="Arial" font-size="10.00">0</text>
</g>
<!-- q15&#45;&gt;q17 -->
<g id="edge33" class="edge">
<title>q15&#45;&gt;q17</title>
<path fill="none" stroke="black" d="M756,-15.44C778.33,-9.84 814.71,-4.53 840.97,-19.6 869.12,-35.76 885.98,-70.36 894.83,-94.77"/>
<polygon fill="black" stroke="black" points="893.11,-95.16 896.41,-99.3 896.42,-94.01 893.11,-95.16"/>
<text text-anchor="middle" x="819.37" y="-22.1" font-family="Arial" font-size="10.00">1</text>
</g>
<!-- q16&#45;&gt;q15 -->
<g id="edge35" class="edge">
<title>q16&#45;&gt;q15</title>
<path fill="none" stroke="black" d="M805.63,-45.35C798.88,-37.58 789.89,-29.15 779.77,-24.6 774.56,-22.25 768.64,-21.02 762.88,-20.46"/>
<polygon fill="black" stroke="black" points="763.34,-18.73 758.24,-20.17 763.12,-22.23 763.34,-18.73"/>
<text text-anchor="middle" x="777.14" y="-27.1" font-family="Arial" font-size="10.00">1</text>
</g>
<!-- q16&#45;&gt;q17 -->
<g id="edge36" class="edge">
<title>q16&#45;&gt;q17</title>
<path fill="none" stroke="black" d="M837.45,-74.82C849.95,-83.76 867,-95.97 880.56,-105.67"/>
<polygon fill="black" stroke="black" points="879.44,-107.02 884.53,-108.51 881.48,-104.18 879.44,-107.02"/>
<text text-anchor="middle" x="861.59" y="-96.37" font-family="Arial" font-size="10.00">0</text>
</g>
<!-- q18 -->
<g id="node19" class="node">
<title>q18</title>
<ellipse fill="none" stroke="black" cx="988.27" cy="-121.6" rx="21.6" ry="21.6"/>
<text text-anchor="middle" x="988.27" y="-117.32" font-family="Arial" font-size="12.00">q18</text>
</g>
<!-- q17&#45;&gt;q18 -->
<g id="edge37" class="edge">
<title>q17&#45;&gt;q18</title>
<path fill="none" stroke="black" d="M925.63,-121.6C935.99,-121.6 948.67,-121.6 959.82,-121.6"/>
<polygon fill="black" stroke="black" points="959.67,-123.35 964.67,-121.6 959.67,-119.85 959.67,-123.35"/>
<text text-anchor="middle" x="946.04" y="-124.1" font-family="Arial" font-size="10.00">1</text>
</g>
<!-- q17&#45;&gt;q18 -->
<g id="edge38" class="edge">
<title>q17&#45;&gt;q18</title>
<path fill="none" stroke="black" d="M922.38,-110.43C930.26,-106.67 939.77,-103.83 948.67,-105.6 953.27,-106.52 958,-107.99 962.52,-109.68"/>
<polygon fill="black" stroke="black" points="961.8,-111.28 967.09,-111.52 963.11,-108.03 961.8,-111.28"/>
<text text-anchor="middle" x="946.04" y="-108.1" font-family="Arial" font-size="10.00">0</text>
</g>
<!-- q18&#45;&gt;q18 -->
<g id="edge40" class="edge">
<title>q18&#45;&gt;q18</title>
<path fill="none" stroke="black" d="M980.59,-141.97C979.52,-152.14 982.08,-161.2 988.27,-161.2 993.1,-161.2 995.72,-155.67 996.13,-148.4"/>
<polygon fill="black" stroke="black" points="997.88,-148.44 996,-143.49 994.38,-148.53 997.88,-148.44"/>
<text text-anchor="middle" x="988.27" y="-163.7" font-family="Arial" font-size="10.00">0</text>
</g>
<!-- q19 -->
<g id="node20" class="node">
<title>q19</title>
<ellipse fill="none" stroke="black" cx="1072.72" cy="-121.6" rx="21.6" ry="21.6"/>
<text text-anchor="middle" x="1072.72" y="-117.32" font-family="Arial" font-size="12.00">q19</text>
</g>
<!-- q18&#45;&gt;q19 -->
<g id="edge39" class="edge">
<title>q18&#45;&gt;q19</title>
<path fill="none" stroke="black" d="M1010.08,-121.6C1020.44,-121.6 1033.12,-121.6 1044.27,-121.6"/>
<polygon fill="black" stroke="black" points="1044.12,-123.35 1049.12,-121.6 1044.12,-119.85 1044.12,-123.35"/>
<text text-anchor="middle" x="1030.49" y="-124.1" font-family="Arial" font-size="10.00">1</text>
</g>
<!-- q19&#45;&gt;q19 -->
<g id="edge42" class="edge">
<title>q19&#45;&gt;q19</title>
<path fill="none" stroke="black" d="M1065.04,-141.97C1063.97,-152.14 1066.53,-161.2 1072.72,-161.2 1077.55,-161.2 1080.17,-155.67 1080.58,-148.4"/>
<polygon fill="black" stroke="black" points="1082.33,-148.44 1080.45,-143.49 1078.83,-148.53 1082.33,-148.44"/>
<text text-anchor="middle" x="1072.72" y="-163.7" font-family="Arial" font-size="10.00">0</text>
</g>
<!-- q20 -->
<g id="node21" class="node">
<title>q20</title>
<ellipse fill="none" stroke="black" cx="1157.17" cy="-121.6" rx="21.6" ry="21.6"/>
<text text-anchor="middle" x="1157.17" y="-117.32" font-family="Arial" font-size="12.00">q20</text>
</g>
<!-- q19&#45;&gt;q20 -->
<g id="edge41" class="edge">
<title>q19&#45;&gt;q20</title>
<path fill="none" stroke="black" d="M1094.53,-121.6C1104.89,-121.6 1117.57,-121.6 1128.72,-121.6"/>
<polygon fill="black" stroke="black" points="1128.57,-123.35 1133.57,-121.6 1128.57,-119.85 1128.57,-123.35"/>
<text text-anchor="middle" x="1114.94" y="-124.1" font-family="Arial" font-size="10.00">1</text>
</g>
<!-- q20&#45;&gt;q20 -->
<g id="edge44" class="edge">
<title>q20&#45;&gt;q20</title>
<path fill="none" stroke="black" d="M1149.49,-141.97C1148.42,-152.14 1150.98,-161.2 1157.17,-161.2 1162,-161.2 1164.62,-155.67 1165.03,-148.4"/>
<polygon fill="black" stroke="black" points="1166.78,-148.44 1164.9,-143.49 1163.28,-148.53 1166.78,-148.44"/>
<text text-anchor="middle" x="1157.17" y="-163.7" font-family="Arial" font-size="10.00">0</text>
</g>
<!-- q21 -->
<g id="node22" class="node">
<title>q21</title>
<ellipse fill="none" stroke="black" cx="1245.62" cy="-121.6" rx="21.6" ry="21.6"/>
<ellipse fill="none" stroke="black" cx="1245.62" cy="-121.6" rx="25.6" ry="25.6"/>
<text text-anchor="middle" x="1245.62" y="-117.32" font-family="Arial" font-size="12.00">q21</text>
</g>
<!-- q20&#45;&gt;q21 -->
<g id="edge43" class="edge">
<title>q20&#45;&gt;q21</title>
<path fill="none" stroke="black" d="M1179.1,-121.6C1189.29,-121.6 1201.76,-121.6 1213.08,-121.6"/>
<polygon fill="black" stroke="black" points="1213.07,-123.35 1218.07,-121.6 1213.07,-119.85 1213.07,-123.35"/>
<text text-anchor="middle" x="1199.39" y="-124.1" font-family="Arial" font-size="10.00">1</text>
</g>
<!-- q21&#45;&gt;q21 -->
<g id="edge45" class="edge">
<title>q21&#45;&gt;q21</title>
<path fill="none" stroke="black" d="M1237.06,-145.81C1236.36,-156.26 1239.21,-165.2 1245.62,-165.2 1250.73,-165.2 1253.58,-159.52 1254.17,-151.93"/>
<polygon fill="black" stroke="black" points="1255.92,-152.33 1254.18,-147.33 1252.42,-152.32 1255.92,-152.33"/>
<text text-anchor="middle" x="1245.62" y="-167.7" font-family="Arial" font-size="10.00">1</text>
</g>
<!-- q22 -->
<g id="node23" class="node">
<title>q22</title>
<ellipse fill="none" stroke="black" cx="1334.07" cy="-121.6" rx="21.6" ry="21.6"/>
<text text-anchor="middle" x="1334.07" y="-117.32" font-family="Arial" font-size="12.00">q22</text>
</g>
<!-- q21&#45;&gt;q22 -->
<g id="edge46" class="edge">
<title>q21&#45;&gt;q22</title>
<path fill="none" stroke="black" d="M1271.62,-121.6C1282.38,-121.6 1294.98,-121.6 1305.96,-121.6"/>
<polygon fill="black" stroke="black" points="1305.69,-123.35 1310.69,-121.6 1305.69,-119.85 1305.69,-123.35"/>
<text text-anchor="middle" x="1291.84" y="-124.1" font-family="Arial" font-size="10.00">0</text>
</g>
<!-- q22&#45;&gt;q21 -->
<g id="edge47" class="edge">
<title>q22&#45;&gt;q21</title>
<path fill="none" stroke="black" d="M1314.3,-112.09C1308.14,-109.44 1301.16,-106.93 1294.47,-105.6 1287.76,-104.26 1280.69,-105.23 1274.11,-107.22"/>
<polygon fill="black" stroke="black" points="1273.78,-105.48 1269.65,-108.8 1274.95,-108.78 1273.78,-105.48"/>
<text text-anchor="middle" x="1291.84" y="-108.1" font-family="Arial" font-size="10.00">0</text>
</g>
<!-- T_q22_1 -->
<g id="node27" class="node">
<title>T_q22_1</title>
<ellipse fill="none" stroke="black" cx="1414.92" cy="-121.6" rx="18" ry="18"/>
<text text-anchor="middle" x="1414.92" y="-118.1" font-family="Arial" font-size="10.00">T</text>
</g>
<!-- q22&#45;&gt;T_q22_1 -->
<g id="edge4" class="edge">
<title>q22&#45;&gt;T_q22_1</title>
<path fill="none" stroke="black" d="M1355.79,-121.6C1366.39,-121.6 1379.34,-121.6 1390.33,-121.6"/>
<polygon fill="black" stroke="black" points="1390.03,-123.35 1395.03,-121.6 1390.03,-119.85 1390.03,-123.35"/>
<text text-anchor="middle" x="1376.29" y="-124.1" font-family="Arial" font-size="10.00">1</text>
</g>
<!-- start_point -->
<g id="node28" class="node">
<title>start_point</title>
<ellipse fill="white" stroke="black" cx="0.36" cy="-249.6" rx="0.36" ry="0.36"/>
</g>
<!-- start_point&#45;&gt;q0 -->
<g id="edge5" class="edge">
<title>start_point&#45;&gt;q0</title>
<path fill="none" stroke="black" d="M0.89,-249.6C2.58,-249.6 17.01,-249.6 30.98,-249.6"/>
<polygon fill="black" stroke="black" points="30.81,-251.35 35.81,-249.6 30.81,-247.85 30.81,-251.35"/>
</g>
</g>
</svg>
