<?xml version="1.0" encoding="UTF-8" standalone="no"?>
<!DOCTYPE svg PUBLIC "-//W3C//DTD SVG 1.1//EN"
 "http://www.w3.org/Graphics/SVG/1.1/DTD/svg11.dtd">
<!-- Generated by graphviz version 12.2.1 (20241206.2353)
 -->
<!-- Pages: 1 -->
<svg width="1402pt" height="323pt"
 viewBox="0.00 0.00 1401.62 323.20" xmlns="http://www.w3.org/2000/svg" xmlns:xlink="http://www.w3.org/1999/xlink">
<g id="graph0" class="graph" transform="scale(1 1) rotate(0) translate(4 319.2)">
<polygon fill="white" stroke="none" points="-4,4 -4,-319.2 1397.62,-319.2 1397.62,4 -4,4"/>
<!-- q0 -->
<g id="node1" class="node">
<title>q0</title>
<ellipse fill="none" stroke="black" cx="59.32" cy="-78.6" rx="21.6" ry="21.6"/>
<text text-anchor="middle" x="59.32" y="-74.32" font-family="Arial" font-size="12.00">q0</text>
</g>
<!-- q0&#45;&gt;q0 -->
<g id="edge2" class="edge">
<title>q0&#45;&gt;q0</title>
<path fill="none" stroke="black" d="M51.98,-99.38C51.08,-109.38 53.52,-118.2 59.32,-118.2 63.85,-118.2 66.33,-112.81 66.77,-105.69"/>
<polygon fill="black" stroke="black" points="68.52,-105.86 66.68,-100.89 65.02,-105.92 68.52,-105.86"/>
<text text-anchor="middle" x="59.32" y="-120.7" font-family="Arial" font-size="10.00">1</text>
</g>
<!-- q1 -->
<g id="node2" class="node">
<title>q1</title>
<ellipse fill="none" stroke="black" cx="143.77" cy="-78.6" rx="21.6" ry="21.6"/>
<text text-anchor="middle" x="143.77" y="-74.32" font-family="Arial" font-size="12.00">q1</text>
</g>
<!-- q0&#45;&gt;q1 -->
<g id="edge3" class="edge">
<title>q0&#45;&gt;q1</title>
<path fill="none" stroke="black" d="M81.13,-78.6C91.49,-78.6 104.17,-78.6 115.32,-78.6"/>
<polygon fill="black" stroke="black" points="115.17,-80.35 120.17,-78.6 115.17,-76.85 115.17,-80.35"/>
<text text-anchor="middle" x="101.54" y="-81.1" font-family="Arial" font-size="10.00">0</text>
</g>
<!-- q1&#45;&gt;q1 -->
<g id="edge4" class="edge">
<title>q1&#45;&gt;q1</title>
<path fill="none" stroke="black" d="M136.09,-98.97C135.02,-109.14 137.58,-118.2 143.77,-118.2 148.6,-118.2 151.22,-112.67 151.63,-105.4"/>
<polygon fill="black" stroke="black" points="153.38,-105.44 151.5,-100.49 149.88,-105.53 153.38,-105.44"/>
<text text-anchor="middle" x="143.77" y="-120.7" font-family="Arial" font-size="10.00">1</text>
</g>
<!-- q2 -->
<g id="node3" class="node">
<title>q2</title>
<ellipse fill="none" stroke="black" cx="228.22" cy="-78.6" rx="21.6" ry="21.6"/>
<text text-anchor="middle" x="228.22" y="-74.32" font-family="Arial" font-size="12.00">q2</text>
</g>
<!-- q1&#45;&gt;q2 -->
<g id="edge5" class="edge">
<title>q1&#45;&gt;q2</title>
<path fill="none" stroke="black" d="M165.58,-78.6C175.94,-78.6 188.62,-78.6 199.77,-78.6"/>
<polygon fill="black" stroke="black" points="199.62,-80.35 204.62,-78.6 199.62,-76.85 199.62,-80.35"/>
<text text-anchor="middle" x="185.99" y="-81.1" font-family="Arial" font-size="10.00">0</text>
</g>
<!-- q3 -->
<g id="node4" class="node">
<title>q3</title>
<ellipse fill="none" stroke="black" cx="312.67" cy="-114.6" rx="21.6" ry="21.6"/>
<text text-anchor="middle" x="312.67" y="-110.32" font-family="Arial" font-size="12.00">q3</text>
</g>
<!-- q2&#45;&gt;q3 -->
<g id="edge6" class="edge">
<title>q2&#45;&gt;q3</title>
<path fill="none" stroke="black" d="M248.34,-86.95C259.71,-91.91 274.26,-98.26 286.54,-103.63"/>
<polygon fill="black" stroke="black" points="285.7,-105.17 290.98,-105.57 287.1,-101.96 285.7,-105.17"/>
<text text-anchor="middle" x="270.44" y="-100.18" font-family="Arial" font-size="10.00">1</text>
</g>
<!-- q4 -->
<g id="node5" class="node">
<title>q4</title>
<ellipse fill="none" stroke="black" cx="397.12" cy="-62.6" rx="21.6" ry="21.6"/>
<text text-anchor="middle" x="397.12" y="-58.32" font-family="Arial" font-size="12.00">q4</text>
</g>
<!-- q2&#45;&gt;q4 -->
<g id="edge7" class="edge">
<title>q2&#45;&gt;q4</title>
<path fill="none" stroke="black" d="M250.1,-76.09C262.08,-74.69 277.41,-72.96 291.07,-71.6 317.48,-68.97 347.68,-66.44 368.89,-64.73"/>
<polygon fill="black" stroke="black" points="368.82,-66.49 373.67,-64.35 368.54,-63 368.82,-66.49"/>
<text text-anchor="middle" x="312.67" y="-74.1" font-family="Arial" font-size="10.00">0</text>
</g>
<!-- q3&#45;&gt;q4 -->
<g id="edge9" class="edge">
<title>q3&#45;&gt;q4</title>
<path fill="none" stroke="black" d="M331.56,-103.32C343.66,-95.68 359.76,-85.53 372.86,-77.27"/>
<polygon fill="black" stroke="black" points="373.69,-78.82 376.98,-74.67 371.82,-75.86 373.69,-78.82"/>
<text text-anchor="middle" x="354.89" y="-92.66" font-family="Arial" font-size="10.00">0</text>
</g>
<!-- q5 -->
<g id="node6" class="node">
<title>q5</title>
<ellipse fill="none" stroke="black" cx="481.57" cy="-136.6" rx="21.6" ry="21.6"/>
<text text-anchor="middle" x="481.57" y="-132.32" font-family="Arial" font-size="12.00">q5</text>
</g>
<!-- q3&#45;&gt;q5 -->
<g id="edge8" class="edge">
<title>q3&#45;&gt;q5</title>
<path fill="none" stroke="black" d="M334.47,-117.34C364.54,-121.3 420.17,-128.64 453.43,-133.02"/>
<polygon fill="black" stroke="black" points="453.08,-134.74 458.27,-133.66 453.54,-131.27 453.08,-134.74"/>
<text text-anchor="middle" x="397.12" y="-130.65" font-family="Arial" font-size="10.00">1</text>
</g>
<!-- q7 -->
<g id="node8" class="node">
<title>q7</title>
<ellipse fill="none" stroke="black" cx="481.57" cy="-62.6" rx="21.6" ry="21.6"/>
<text text-anchor="middle" x="481.57" y="-58.32" font-family="Arial" font-size="12.00">q7</text>
</g>
<!-- q4&#45;&gt;q7 -->
<g id="edge10" class="edge">
<title>q4&#45;&gt;q7</title>
<path fill="none" stroke="black" d="M418.93,-62.6C429.29,-62.6 441.97,-62.6 453.12,-62.6"/>
<polygon fill="black" stroke="black" points="452.97,-64.35 457.97,-62.6 452.97,-60.85 452.97,-64.35"/>
<text text-anchor="middle" x="439.34" y="-65.1" font-family="Arial" font-size="10.00">0</text>
</g>
<!-- q6 -->
<g id="node7" class="node">
<title>q6</title>
<ellipse fill="none" stroke="black" cx="566.02" cy="-136.6" rx="21.6" ry="21.6"/>
<text text-anchor="middle" x="566.02" y="-132.32" font-family="Arial" font-size="12.00">q6</text>
</g>
<!-- q5&#45;&gt;q6 -->
<g id="edge12" class="edge">
<title>q5&#45;&gt;q6</title>
<path fill="none" stroke="black" d="M503.38,-136.6C513.74,-136.6 526.42,-136.6 537.57,-136.6"/>
<polygon fill="black" stroke="black" points="537.42,-138.35 542.42,-136.6 537.42,-134.85 537.42,-138.35"/>
<text text-anchor="middle" x="523.79" y="-139.1" font-family="Arial" font-size="10.00">0</text>
</g>
<!-- q14 -->
<g id="node15" class="node">
<title>q14</title>
<ellipse fill="none" stroke="black" cx="650.47" cy="-220.6" rx="21.6" ry="21.6"/>
<text text-anchor="middle" x="650.47" y="-216.32" font-family="Arial" font-size="12.00">q14</text>
</g>
<!-- q5&#45;&gt;q14 -->
<g id="edge11" class="edge">
<title>q5&#45;&gt;q14</title>
<path fill="none" stroke="black" d="M501.39,-146.07C531.77,-161.36 591.6,-191.48 625.17,-208.37"/>
<polygon fill="black" stroke="black" points="624.11,-209.8 629.37,-210.48 625.69,-206.67 624.11,-209.8"/>
<text text-anchor="middle" x="566.02" y="-190.82" font-family="Arial" font-size="10.00">1</text>
</g>
<!-- q8 -->
<g id="node9" class="node">
<title>q8</title>
<ellipse fill="none" stroke="black" cx="650.47" cy="-61.6" rx="21.6" ry="21.6"/>
<text text-anchor="middle" x="650.47" y="-57.32" font-family="Arial" font-size="12.00">q8</text>
</g>
<!-- q6&#45;&gt;q8 -->
<g id="edge13" class="edge">
<title>q6&#45;&gt;q8</title>
<path fill="none" stroke="black" d="M581.79,-121.53C588.88,-114.44 597.56,-105.95 605.62,-98.6 612.8,-92.06 620.87,-85.13 628.11,-79.06"/>
<polygon fill="black" stroke="black" points="629.09,-80.53 631.81,-75.98 626.85,-77.84 629.09,-80.53"/>
<text text-anchor="middle" x="608.24" y="-101.1" font-family="Arial" font-size="10.00">1</text>
</g>
<!-- q9 -->
<g id="node10" class="node">
<title>q9</title>
<ellipse fill="none" stroke="black" cx="857.32" cy="-82.6" rx="21.6" ry="21.6"/>
<text text-anchor="middle" x="857.32" y="-78.32" font-family="Arial" font-size="12.00">q9</text>
</g>
<!-- q6&#45;&gt;q9 -->
<g id="edge14" class="edge">
<title>q6&#45;&gt;q9</title>
<path fill="none" stroke="black" d="M586.64,-143.8C631.29,-158.85 742.42,-188.79 817.72,-144.6 831.19,-136.7 840.63,-122.05 846.8,-108.98"/>
<polygon fill="black" stroke="black" points="848.36,-109.78 848.8,-104.5 845.17,-108.35 848.36,-109.78"/>
<text text-anchor="middle" x="711.67" y="-170.25" font-family="Arial" font-size="10.00">0</text>
</g>
<!-- q10 -->
<g id="node11" class="node">
<title>q10</title>
<ellipse fill="none" stroke="black" cx="566.02" cy="-62.6" rx="21.6" ry="21.6"/>
<text text-anchor="middle" x="566.02" y="-58.32" font-family="Arial" font-size="12.00">q10</text>
</g>
<!-- q7&#45;&gt;q10 -->
<g id="edge16" class="edge">
<title>q7&#45;&gt;q10</title>
<path fill="none" stroke="black" d="M503.38,-62.6C513.74,-62.6 526.42,-62.6 537.57,-62.6"/>
<polygon fill="black" stroke="black" points="537.42,-64.35 542.42,-62.6 537.42,-60.85 537.42,-64.35"/>
<text text-anchor="middle" x="523.79" y="-65.1" font-family="Arial" font-size="10.00">0</text>
</g>
<!-- q12 -->
<g id="node13" class="node">
<title>q12</title>
<ellipse fill="none" stroke="black" cx="772.87" cy="-56.6" rx="21.6" ry="21.6"/>
<text text-anchor="middle" x="772.87" y="-52.32" font-family="Arial" font-size="12.00">q12</text>
</g>
<!-- q7&#45;&gt;q12 -->
<g id="edge15" class="edge">
<title>q7&#45;&gt;q12</title>
<path fill="none" stroke="black" d="M500.53,-51.98C523.81,-38.97 566.11,-17.89 605.62,-11.6 657.33,-3.37 716.08,-27.45 748.05,-43.49"/>
<polygon fill="black" stroke="black" points="747.1,-44.97 752.35,-45.69 748.7,-41.86 747.1,-44.97"/>
<text text-anchor="middle" x="608.24" y="-14.1" font-family="Arial" font-size="10.00">1</text>
</g>
<!-- q8&#45;&gt;q10 -->
<g id="edge18" class="edge">
<title>q8&#45;&gt;q10</title>
<path fill="none" stroke="black" d="M637.95,-44.07C629.7,-33.91 617.92,-23.96 605.62,-28.6 598.18,-31.41 591.24,-36.38 585.36,-41.67"/>
<polygon fill="black" stroke="black" points="584.18,-40.38 581.78,-45.1 586.6,-42.9 584.18,-40.38"/>
<text text-anchor="middle" x="608.24" y="-31.1" font-family="Arial" font-size="10.00">0</text>
</g>
<!-- q8&#45;&gt;q12 -->
<g id="edge17" class="edge">
<title>q8&#45;&gt;q12</title>
<path fill="none" stroke="black" d="M672.44,-60.73C692.47,-59.9 722.75,-58.64 744.64,-57.73"/>
<polygon fill="black" stroke="black" points="744.7,-59.48 749.63,-57.52 744.56,-55.98 744.7,-59.48"/>
<text text-anchor="middle" x="711.67" y="-62.48" font-family="Arial" font-size="10.00">1</text>
</g>
<!-- q9&#45;&gt;q12 -->
<g id="edge19" class="edge">
<title>q9&#45;&gt;q12</title>
<path fill="none" stroke="black" d="M840.05,-69.21C833.51,-64.63 825.66,-60.04 817.72,-57.6 812.49,-55.99 806.74,-55.2 801.17,-54.91"/>
<polygon fill="black" stroke="black" points="801.32,-53.16 796.28,-54.8 801.24,-56.66 801.32,-53.16"/>
<text text-anchor="middle" x="815.09" y="-60.1" font-family="Arial" font-size="10.00">1</text>
</g>
<!-- q17 -->
<g id="node18" class="node">
<title>q17</title>
<ellipse fill="none" stroke="black" cx="941.77" cy="-132.6" rx="21.6" ry="21.6"/>
<text text-anchor="middle" x="941.77" y="-128.32" font-family="Arial" font-size="12.00">q17</text>
</g>
<!-- q9&#45;&gt;q17 -->
<g id="edge20" class="edge">
<title>q9&#45;&gt;q17</title>
<path fill="none" stroke="black" d="M876.88,-92.27C884.77,-96.51 894.02,-101.64 902.17,-106.6 907.55,-109.88 913.24,-113.57 918.54,-117.12"/>
<polygon fill="black" stroke="black" points="917.32,-118.41 922.44,-119.76 919.28,-115.51 917.32,-118.41"/>
<text text-anchor="middle" x="899.54" y="-109.1" font-family="Arial" font-size="10.00">0</text>
</g>
<!-- q10&#45;&gt;q8 -->
<g id="edge21" class="edge">
<title>q10&#45;&gt;q8</title>
<path fill="none" stroke="black" d="M587.83,-62.35C598.19,-62.22 610.87,-62.07 622.02,-61.93"/>
<polygon fill="black" stroke="black" points="621.89,-63.68 626.87,-61.87 621.85,-60.18 621.89,-63.68"/>
<text text-anchor="middle" x="608.24" y="-64.63" font-family="Arial" font-size="10.00">1</text>
</g>
<!-- q11 -->
<g id="node12" class="node">
<title>q11</title>
<ellipse fill="none" stroke="black" cx="711.67" cy="-125.6" rx="21.6" ry="21.6"/>
<text text-anchor="middle" x="711.67" y="-121.32" font-family="Arial" font-size="12.00">q11</text>
</g>
<!-- q10&#45;&gt;q11 -->
<g id="edge22" class="edge">
<title>q10&#45;&gt;q11</title>
<path fill="none" stroke="black" d="M577.4,-81.52C584.08,-91.83 593.73,-103.83 605.62,-110.6 629.52,-124.21 661.26,-127.05 683.58,-127.05"/>
<polygon fill="black" stroke="black" points="683.4,-128.8 688.38,-126.99 683.36,-125.3 683.4,-128.8"/>
<text text-anchor="middle" x="608.24" y="-115.02" font-family="Arial" font-size="10.00">0</text>
</g>
<!-- q11&#45;&gt;q17 -->
<g id="edge23" class="edge">
<title>q11&#45;&gt;q17</title>
<path fill="none" stroke="black" d="M733.72,-126.25C775.14,-127.52 867.18,-130.34 913.31,-131.76"/>
<polygon fill="black" stroke="black" points="913.21,-133.5 918.26,-131.91 913.31,-130.01 913.21,-133.5"/>
<text text-anchor="middle" x="815.09" y="-131.31" font-family="Arial" font-size="10.00">0</text>
</g>
<!-- q12&#45;&gt;q9 -->
<g id="edge25" class="edge">
<title>q12&#45;&gt;q9</title>
<path fill="none" stroke="black" d="M793.86,-63.49C799.83,-65.5 806.4,-67.68 812.47,-69.6 818.14,-71.39 824.25,-73.25 830.05,-74.98"/>
<polygon fill="black" stroke="black" points="829.45,-76.63 834.74,-76.37 830.44,-73.27 829.45,-76.63"/>
<text text-anchor="middle" x="815.09" y="-73.58" font-family="Arial" font-size="10.00">0</text>
</g>
<!-- q13 -->
<g id="node14" class="node">
<title>q13</title>
<ellipse fill="none" stroke="black" cx="857.32" cy="-21.6" rx="21.6" ry="21.6"/>
<text text-anchor="middle" x="857.32" y="-17.32" font-family="Arial" font-size="12.00">q13</text>
</g>
<!-- q12&#45;&gt;q13 -->
<g id="edge24" class="edge">
<title>q12&#45;&gt;q13</title>
<path fill="none" stroke="black" d="M792.99,-48.48C804.36,-43.66 818.91,-37.48 831.19,-32.27"/>
<polygon fill="black" stroke="black" points="831.7,-33.95 835.62,-30.39 830.34,-30.73 831.7,-33.95"/>
<text text-anchor="middle" x="815.09" y="-42.65" font-family="Arial" font-size="10.00">1</text>
</g>
<!-- q13&#45;&gt;q17 -->
<g id="edge26" class="edge">
<title>q13&#45;&gt;q17</title>
<path fill="none" stroke="black" d="M870.84,-38.46C885.13,-57.69 908.54,-89.22 924.3,-110.43"/>
<polygon fill="black" stroke="black" points="922.84,-111.4 927.23,-114.37 925.65,-109.31 922.84,-111.4"/>
<text text-anchor="middle" x="899.54" y="-82.93" font-family="Arial" font-size="10.00">1</text>
</g>
<!-- q15 -->
<g id="node16" class="node">
<title>q15</title>
<ellipse fill="none" stroke="black" cx="772.87" cy="-271.6" rx="21.6" ry="21.6"/>
<text text-anchor="middle" x="772.87" y="-267.33" font-family="Arial" font-size="12.00">q15</text>
</g>
<!-- q14&#45;&gt;q15 -->
<g id="edge27" class="edge">
<title>q14&#45;&gt;q15</title>
<path fill="none" stroke="black" d="M670.81,-228.79C691.44,-237.53 724.18,-251.4 746.77,-260.97"/>
<polygon fill="black" stroke="black" points="745.89,-262.5 751.18,-262.84 747.26,-259.27 745.89,-262.5"/>
<text text-anchor="middle" x="711.67" y="-257.6" font-family="Arial" font-size="10.00">1</text>
</g>
<!-- q16 -->
<g id="node17" class="node">
<title>q16</title>
<ellipse fill="none" stroke="black" cx="857.32" cy="-293.6" rx="21.6" ry="21.6"/>
<text text-anchor="middle" x="857.32" y="-289.33" font-family="Arial" font-size="12.00">q16</text>
</g>
<!-- q14&#45;&gt;q16 -->
<g id="edge28" class="edge">
<title>q14&#45;&gt;q16</title>
<path fill="none" stroke="black" d="M672.02,-217.2C700.85,-213.41 754.3,-210.03 794.47,-228.6 813.74,-237.51 830.02,-255.35 841.03,-270.09"/>
<polygon fill="black" stroke="black" points="839.61,-271.11 843.96,-274.13 842.44,-269.06 839.61,-271.11"/>
<text text-anchor="middle" x="772.87" y="-231.1" font-family="Arial" font-size="10.00">0</text>
</g>
<!-- q15&#45;&gt;q16 -->
<g id="edge30" class="edge">
<title>q15&#45;&gt;q16</title>
<path fill="none" stroke="black" d="M792.77,-280.57C798.94,-283.19 805.89,-285.82 812.47,-287.6 817.8,-289.04 823.59,-290.15 829.17,-290.99"/>
<polygon fill="black" stroke="black" points="828.89,-292.72 834.08,-291.66 829.36,-289.25 828.89,-292.72"/>
<text text-anchor="middle" x="815.09" y="-291.25" font-family="Arial" font-size="10.00">0</text>
</g>
<!-- q15&#45;&gt;q17 -->
<g id="edge29" class="edge">
<title>q15&#45;&gt;q17</title>
<path fill="none" stroke="black" d="M790.18,-258.02C820.67,-232.63 886.26,-178 919.92,-149.97"/>
<polygon fill="black" stroke="black" points="920.76,-151.54 923.48,-147 918.52,-148.86 920.76,-151.54"/>
<text text-anchor="middle" x="857.32" y="-220.69" font-family="Arial" font-size="10.00">1</text>
</g>
<!-- q16&#45;&gt;q15 -->
<g id="edge31" class="edge">
<title>q16&#45;&gt;q15</title>
<path fill="none" stroke="black" d="M839,-281.9C832.59,-278.2 825.09,-274.57 817.72,-272.6 812.43,-271.19 806.66,-270.49 801.08,-270.22"/>
<polygon fill="black" stroke="black" points="801.23,-268.47 796.19,-270.11 801.15,-271.97 801.23,-268.47"/>
<text text-anchor="middle" x="815.09" y="-275.1" font-family="Arial" font-size="10.00">1</text>
</g>
<!-- q16&#45;&gt;q17 -->
<g id="edge32" class="edge">
<title>q16&#45;&gt;q17</title>
<path fill="none" stroke="black" d="M875.81,-282.04C884.82,-275.29 895.32,-266.05 902.17,-255.6 921.4,-226.27 931.55,-186.75 936.54,-160.52"/>
<polygon fill="black" stroke="black" points="938.25,-160.87 937.42,-155.63 934.81,-160.24 938.25,-160.87"/>
<text text-anchor="middle" x="899.54" y="-264.4" font-family="Arial" font-size="10.00">0</text>
</g>
<!-- q18 -->
<g id="node19" class="node">
<title>q18</title>
<ellipse fill="none" stroke="black" cx="1026.22" cy="-132.6" rx="21.6" ry="21.6"/>
<text text-anchor="middle" x="1026.22" y="-128.32" font-family="Arial" font-size="12.00">q18</text>
</g>
<!-- q17&#45;&gt;q18 -->
<g id="edge33" class="edge">
<title>q17&#45;&gt;q18</title>
<path fill="none" stroke="black" d="M963.58,-132.6C973.94,-132.6 986.62,-132.6 997.77,-132.6"/>
<polygon fill="black" stroke="black" points="997.62,-134.35 1002.62,-132.6 997.62,-130.85 997.62,-134.35"/>
<text text-anchor="middle" x="983.99" y="-135.1" font-family="Arial" font-size="10.00">1</text>
</g>
<!-- q17&#45;&gt;q18 -->
<g id="edge34" class="edge">
<title>q17&#45;&gt;q18</title>
<path fill="none" stroke="black" d="M961.54,-123.09C967.7,-120.44 974.68,-117.93 981.37,-116.6 988.19,-115.24 995.35,-116.59 1001.88,-118.98"/>
<polygon fill="black" stroke="black" points="1000.97,-120.5 1006.26,-120.84 1002.34,-117.28 1000.97,-120.5"/>
<text text-anchor="middle" x="983.99" y="-119.1" font-family="Arial" font-size="10.00">0</text>
</g>
<!-- q18&#45;&gt;q18 -->
<g id="edge36" class="edge">
<title>q18&#45;&gt;q18</title>
<path fill="none" stroke="black" d="M1018.54,-152.97C1017.47,-163.14 1020.03,-172.2 1026.22,-172.2 1031.05,-172.2 1033.67,-166.67 1034.08,-159.4"/>
<polygon fill="black" stroke="black" points="1035.83,-159.44 1033.95,-154.49 1032.33,-159.53 1035.83,-159.44"/>
<text text-anchor="middle" x="1026.22" y="-174.7" font-family="Arial" font-size="10.00">0</text>
</g>
<!-- q19 -->
<g id="node20" class="node">
<title>q19</title>
<ellipse fill="none" stroke="black" cx="1110.67" cy="-132.6" rx="21.6" ry="21.6"/>
<text text-anchor="middle" x="1110.67" y="-128.32" font-family="Arial" font-size="12.00">q19</text>
</g>
<!-- q18&#45;&gt;q19 -->
<g id="edge35" class="edge">
<title>q18&#45;&gt;q19</title>
<path fill="none" stroke="black" d="M1048.03,-132.6C1058.39,-132.6 1071.07,-132.6 1082.22,-132.6"/>
<polygon fill="black" stroke="black" points="1082.07,-134.35 1087.07,-132.6 1082.07,-130.85 1082.07,-134.35"/>
<text text-anchor="middle" x="1068.44" y="-135.1" font-family="Arial" font-size="10.00">1</text>
</g>
<!-- q19&#45;&gt;q19 -->
<g id="edge38" class="edge">
<title>q19&#45;&gt;q19</title>
<path fill="none" stroke="black" d="M1102.99,-152.97C1101.92,-163.14 1104.48,-172.2 1110.67,-172.2 1115.5,-172.2 1118.12,-166.67 1118.53,-159.4"/>
<polygon fill="black" stroke="black" points="1120.28,-159.44 1118.4,-154.49 1116.78,-159.53 1120.28,-159.44"/>
<text text-anchor="middle" x="1110.67" y="-174.7" font-family="Arial" font-size="10.00">0</text>
</g>
<!-- q20 -->
<g id="node21" class="node">
<title>q20</title>
<ellipse fill="none" stroke="black" cx="1195.12" cy="-132.6" rx="21.6" ry="21.6"/>
<text text-anchor="middle" x="1195.12" y="-128.32" font-family="Arial" font-size="12.00">q20</text>
</g>
<!-- q19&#45;&gt;q20 -->
<g id="edge37" class="edge">
<title>q19&#45;&gt;q20</title>
<path fill="none" stroke="black" d="M1132.48,-132.6C1142.84,-132.6 1155.52,-132.6 1166.67,-132.6"/>
<polygon fill="black" stroke="black" points="1166.52,-134.35 1171.52,-132.6 1166.52,-130.85 1166.52,-134.35"/>
<text text-anchor="middle" x="1152.89" y="-135.1" font-family="Arial" font-size="10.00">1</text>
</g>
<!-- q20&#45;&gt;q20 -->
<g id="edge40" class="edge">
<title>q20&#45;&gt;q20</title>
<path fill="none" stroke="black" d="M1187.44,-152.97C1186.37,-163.14 1188.93,-172.2 1195.12,-172.2 1199.95,-172.2 1202.57,-166.67 1202.98,-159.4"/>
<polygon fill="black" stroke="black" points="1204.73,-159.44 1202.85,-154.49 1201.23,-159.53 1204.73,-159.44"/>
<text text-anchor="middle" x="1195.12" y="-174.7" font-family="Arial" font-size="10.00">0</text>
</g>
<!-- q21 -->
<g id="node22" class="node">
<title>q21</title>
<ellipse fill="none" stroke="black" cx="1283.57" cy="-132.6" rx="21.6" ry="21.6"/>
<ellipse fill="none" stroke="black" cx="1283.57" cy="-132.6" rx="25.6" ry="25.6"/>
<text text-anchor="middle" x="1283.57" y="-128.32" font-family="Arial" font-size="12.00">q21</text>
</g>
<!-- q20&#45;&gt;q21 -->
<g id="edge39" class="edge">
<title>q20&#45;&gt;q21</title>
<path fill="none" stroke="black" d="M1217.05,-132.6C1227.24,-132.6 1239.71,-132.6 1251.03,-132.6"/>
<polygon fill="black" stroke="black" points="1251.02,-134.35 1256.02,-132.6 1251.02,-130.85 1251.02,-134.35"/>
<text text-anchor="middle" x="1237.34" y="-135.1" font-family="Arial" font-size="10.00">1</text>
</g>
<!-- q21&#45;&gt;q21 -->
<g id="edge41" class="edge">
<title>q21&#45;&gt;q21</title>
<path fill="none" stroke="black" d="M1275.01,-156.81C1274.31,-167.26 1277.16,-176.2 1283.57,-176.2 1288.68,-176.2 1291.53,-170.52 1292.12,-162.93"/>
<polygon fill="black" stroke="black" points="1293.87,-163.33 1292.13,-158.33 1290.37,-163.32 1293.87,-163.33"/>
<text text-anchor="middle" x="1283.57" y="-178.7" font-family="Arial" font-size="10.00">1</text>
</g>
<!-- q22 -->
<g id="node23" class="node">
<title>q22</title>
<ellipse fill="none" stroke="black" cx="1372.02" cy="-132.6" rx="21.6" ry="21.6"/>
<text text-anchor="middle" x="1372.02" y="-128.32" font-family="Arial" font-size="12.00">q22</text>
</g>
<!-- q21&#45;&gt;q22 -->
<g id="edge42" class="edge">
<title>q21&#45;&gt;q22</title>
<path fill="none" stroke="black" d="M1309.57,-132.6C1320.33,-132.6 1332.93,-132.6 1343.91,-132.6"/>
<polygon fill="black" stroke="black" points="1343.64,-134.35 1348.64,-132.6 1343.64,-130.85 1343.64,-134.35"/>
<text text-anchor="middle" x="1329.79" y="-135.1" font-family="Arial" font-size="10.00">0</text>
</g>
<!-- q22&#45;&gt;q21 -->
<g id="edge43" class="edge">
<title>q22&#45;&gt;q21</title>
<path fill="none" stroke="black" d="M1352.25,-123.09C1346.09,-120.44 1339.11,-117.93 1332.42,-116.6 1325.71,-115.26 1318.64,-116.23 1312.06,-118.22"/>
<polygon fill="black" stroke="black" points="1311.73,-116.48 1307.6,-119.8 1312.9,-119.78 1311.73,-116.48"/>
<text text-anchor="middle" x="1329.79" y="-119.1" font-family="Arial" font-size="10.00">0</text>
</g>
<!-- start_node -->
<g id="node24" class="node">
<title>start_node</title>
<ellipse fill="black" stroke="black" cx="0.36" cy="-78.6" rx="0.36" ry="0.36"/>
</g>
<!-- start_node&#45;&gt;q0 -->
<g id="edge1" class="edge">
<title>start_node&#45;&gt;q0</title>
<path fill="none" stroke="black" d="M0.89,-78.6C2.58,-78.6 17.01,-78.6 30.98,-78.6"/>
<polygon fill="black" stroke="black" points="30.81,-80.35 35.81,-78.6 30.81,-76.85 30.81,-80.35"/>
</g>
</g>
</svg>
