<?xml version="1.0" encoding="UTF-8" standalone="no"?>
<!DOCTYPE svg PUBLIC "-//W3C//DTD SVG 1.1//EN"
 "http://www.w3.org/Graphics/SVG/1.1/DTD/svg11.dtd">
<!-- Generated by graphviz version 12.2.1 (20241206.2353)
 -->
<!-- Pages: 1 -->
<svg width="1279pt" height="226pt"
 viewBox="0.00 0.00 1279.22 225.60" xmlns="http://www.w3.org/2000/svg" xmlns:xlink="http://www.w3.org/1999/xlink">
<g id="graph0" class="graph" transform="scale(1 1) rotate(0) translate(4 221.6)">
<polygon fill="white" stroke="none" points="-4,4 -4,-221.6 1275.22,-221.6 1275.22,4 -4,4"/>
<!-- q0 -->
<g id="node1" class="node">
<title>q0</title>
<ellipse fill="none" stroke="black" cx="59.32" cy="-75" rx="21.6" ry="21.6"/>
<text text-anchor="middle" x="59.32" y="-70.72" font-family="Arial" font-size="12.00">q0</text>
</g>
<!-- q1 -->
<g id="node2" class="node">
<title>q1</title>
<ellipse fill="none" stroke="black" cx="143.77" cy="-106" rx="21.6" ry="21.6"/>
<text text-anchor="middle" x="143.77" y="-101.72" font-family="Arial" font-size="12.00">q1</text>
</g>
<!-- q0&#45;&gt;q1 -->
<g id="edge7" class="edge">
<title>q0&#45;&gt;q1</title>
<path fill="none" stroke="black" d="M79.86,-82.35C90.97,-86.52 105.02,-91.81 117.02,-96.32"/>
<polygon fill="black" stroke="black" points="116.37,-97.94 121.67,-98.07 117.6,-94.67 116.37,-97.94"/>
<text text-anchor="middle" x="101.54" y="-93.93" font-family="Arial" font-size="10.00">a</text>
</g>
<!-- q2 -->
<g id="node3" class="node">
<title>q2</title>
<ellipse fill="none" stroke="black" cx="143.77" cy="-45" rx="21.6" ry="21.6"/>
<text text-anchor="middle" x="143.77" y="-40.73" font-family="Arial" font-size="12.00">q2</text>
</g>
<!-- q0&#45;&gt;q2 -->
<g id="edge8" class="edge">
<title>q0&#45;&gt;q2</title>
<path fill="none" stroke="black" d="M79.86,-67.89C90.97,-63.85 105.02,-58.74 117.02,-54.37"/>
<polygon fill="black" stroke="black" points="117.56,-56.03 121.66,-52.68 116.37,-52.75 117.56,-56.03"/>
<text text-anchor="middle" x="101.54" y="-63.4" font-family="Arial" font-size="10.00">b</text>
</g>
<!-- q3 -->
<g id="node4" class="node">
<title>q3</title>
<ellipse fill="none" stroke="black" cx="228.22" cy="-76" rx="21.6" ry="21.6"/>
<text text-anchor="middle" x="228.22" y="-71.72" font-family="Arial" font-size="12.00">q3</text>
</g>
<!-- q1&#45;&gt;q3 -->
<g id="edge9" class="edge">
<title>q1&#45;&gt;q3</title>
<path fill="none" stroke="black" d="M164.31,-98.89C175.42,-94.85 189.47,-89.74 201.47,-85.37"/>
<polygon fill="black" stroke="black" points="202.01,-87.03 206.11,-83.68 200.82,-83.75 202.01,-87.03"/>
<text text-anchor="middle" x="185.99" y="-94.4" font-family="Arial" font-size="10.00">a</text>
</g>
<!-- T_q1_b -->
<g id="node21" class="node">
<title>T_q1_b</title>
<ellipse fill="none" stroke="black" cx="228.22" cy="-134" rx="18" ry="18"/>
<text text-anchor="middle" x="228.22" y="-130.5" font-family="Arial" font-size="10.00">T</text>
</g>
<!-- q1&#45;&gt;T_q1_b -->
<g id="edge1" class="edge">
<title>q1&#45;&gt;T_q1_b</title>
<path fill="none" stroke="black" d="M164.73,-112.78C176.85,-116.9 192.35,-122.16 204.89,-126.42"/>
<polygon fill="black" stroke="black" points="204.04,-127.98 209.34,-127.93 205.17,-124.66 204.04,-127.98"/>
<text text-anchor="middle" x="185.99" y="-123.34" font-family="Arial" font-size="10.00">b</text>
</g>
<!-- q2&#45;&gt;q3 -->
<g id="edge10" class="edge">
<title>q2&#45;&gt;q3</title>
<path fill="none" stroke="black" d="M164.31,-52.35C175.42,-56.52 189.47,-61.81 201.47,-66.32"/>
<polygon fill="black" stroke="black" points="200.82,-67.94 206.12,-68.07 202.05,-64.67 200.82,-67.94"/>
<text text-anchor="middle" x="185.99" y="-63.93" font-family="Arial" font-size="10.00">b</text>
</g>
<!-- T_q2_a -->
<g id="node22" class="node">
<title>T_q2_a</title>
<ellipse fill="none" stroke="black" cx="228.22" cy="-18" rx="18" ry="18"/>
<text text-anchor="middle" x="228.22" y="-14.5" font-family="Arial" font-size="10.00">T</text>
</g>
<!-- q2&#45;&gt;T_q2_a -->
<g id="edge2" class="edge">
<title>q2&#45;&gt;T_q2_a</title>
<path fill="none" stroke="black" d="M161.65,-32.71C168.14,-28.61 175.8,-24.46 183.37,-22 189.7,-19.94 196.79,-18.82 203.39,-18.24"/>
<polygon fill="black" stroke="black" points="203.4,-19.99 208.28,-17.92 203.17,-16.5 203.4,-19.99"/>
<text text-anchor="middle" x="185.99" y="-24.5" font-family="Arial" font-size="10.00">a</text>
</g>
<!-- q4 -->
<g id="node5" class="node">
<title>q4</title>
<ellipse fill="none" stroke="black" cx="312.67" cy="-103" rx="21.6" ry="21.6"/>
<text text-anchor="middle" x="312.67" y="-98.72" font-family="Arial" font-size="12.00">q4</text>
</g>
<!-- q3&#45;&gt;q4 -->
<g id="edge11" class="edge">
<title>q3&#45;&gt;q4</title>
<path fill="none" stroke="black" d="M249.18,-82.54C260.14,-86.12 273.85,-90.62 285.64,-94.48"/>
<polygon fill="black" stroke="black" points="284.87,-96.07 290.17,-95.96 285.96,-92.74 284.87,-96.07"/>
<text text-anchor="middle" x="270.44" y="-92.81" font-family="Arial" font-size="10.00">a</text>
</g>
<!-- q5 -->
<g id="node6" class="node">
<title>q5</title>
<ellipse fill="none" stroke="black" cx="312.67" cy="-42" rx="21.6" ry="21.6"/>
<text text-anchor="middle" x="312.67" y="-37.73" font-family="Arial" font-size="12.00">q5</text>
</g>
<!-- q3&#45;&gt;q5 -->
<g id="edge12" class="edge">
<title>q3&#45;&gt;q5</title>
<path fill="none" stroke="black" d="M248.76,-67.94C260.05,-63.28 274.39,-57.38 286.52,-52.37"/>
<polygon fill="black" stroke="black" points="286.92,-54.1 290.87,-50.58 285.58,-50.87 286.92,-54.1"/>
<text text-anchor="middle" x="270.44" y="-62.52" font-family="Arial" font-size="10.00">b</text>
</g>
<!-- q6 -->
<g id="node7" class="node">
<title>q6</title>
<ellipse fill="none" stroke="black" cx="397.12" cy="-154" rx="21.6" ry="21.6"/>
<text text-anchor="middle" x="397.12" y="-149.72" font-family="Arial" font-size="12.00">q6</text>
</g>
<!-- q4&#45;&gt;q6 -->
<g id="edge13" class="edge">
<title>q4&#45;&gt;q6</title>
<path fill="none" stroke="black" d="M331.56,-114.07C343.66,-121.55 359.76,-131.51 372.86,-139.61"/>
<polygon fill="black" stroke="black" points="371.8,-141.02 376.98,-142.16 373.65,-138.04 371.8,-141.02"/>
<text text-anchor="middle" x="354.89" y="-132.53" font-family="Arial" font-size="10.00">b</text>
</g>
<!-- T_q4_a -->
<g id="node23" class="node">
<title>T_q4_a</title>
<ellipse fill="none" stroke="black" cx="397.12" cy="-96" rx="18" ry="18"/>
<text text-anchor="middle" x="397.12" y="-92.5" font-family="Arial" font-size="10.00">T</text>
</g>
<!-- q4&#45;&gt;T_q4_a -->
<g id="edge3" class="edge">
<title>q4&#45;&gt;T_q4_a</title>
<path fill="none" stroke="black" d="M334.48,-101.23C346.07,-100.25 360.54,-99.02 372.55,-98"/>
<polygon fill="black" stroke="black" points="372.59,-99.75 377.43,-97.59 372.3,-96.27 372.59,-99.75"/>
<text text-anchor="middle" x="354.89" y="-102.21" font-family="Arial" font-size="10.00">a</text>
</g>
<!-- q7 -->
<g id="node8" class="node">
<title>q7</title>
<ellipse fill="none" stroke="black" cx="397.12" cy="-38" rx="21.6" ry="21.6"/>
<text text-anchor="middle" x="397.12" y="-33.73" font-family="Arial" font-size="12.00">q7</text>
</g>
<!-- q5&#45;&gt;q7 -->
<g id="edge14" class="edge">
<title>q5&#45;&gt;q7</title>
<path fill="none" stroke="black" d="M329.46,-28.26C336.05,-23.39 344.08,-18.5 352.27,-16 360.19,-13.58 368.42,-16.17 375.58,-20.32"/>
<polygon fill="black" stroke="black" points="374.41,-21.64 379.55,-22.91 376.32,-18.71 374.41,-21.64"/>
<text text-anchor="middle" x="354.89" y="-18.5" font-family="Arial" font-size="10.00">a</text>
</g>
<!-- q5&#45;&gt;q7 -->
<g id="edge15" class="edge">
<title>q5&#45;&gt;q7</title>
<path fill="none" stroke="black" d="M334.48,-40.99C344.92,-40.48 357.71,-39.86 368.93,-39.32"/>
<polygon fill="black" stroke="black" points="368.9,-41.07 373.81,-39.08 368.73,-37.58 368.9,-41.07"/>
<text text-anchor="middle" x="354.89" y="-42.62" font-family="Arial" font-size="10.00">b</text>
</g>
<!-- q8 -->
<g id="node9" class="node">
<title>q8</title>
<ellipse fill="none" stroke="black" cx="481.57" cy="-96" rx="21.6" ry="21.6"/>
<text text-anchor="middle" x="481.57" y="-91.72" font-family="Arial" font-size="12.00">q8</text>
</g>
<!-- q6&#45;&gt;q8 -->
<g id="edge16" class="edge">
<title>q6&#45;&gt;q8</title>
<path fill="none" stroke="black" d="M415.2,-141.98C427.61,-133.25 444.53,-121.35 458.04,-111.85"/>
<polygon fill="black" stroke="black" points="458.9,-113.38 461.99,-109.07 456.89,-110.52 458.9,-113.38"/>
<text text-anchor="middle" x="439.34" y="-129.24" font-family="Arial" font-size="10.00">a</text>
</g>
<!-- T_q6_b -->
<g id="node24" class="node">
<title>T_q6_b</title>
<ellipse fill="none" stroke="black" cx="481.57" cy="-154" rx="18" ry="18"/>
<text text-anchor="middle" x="481.57" y="-150.5" font-family="Arial" font-size="10.00">T</text>
</g>
<!-- q6&#45;&gt;T_q6_b -->
<g id="edge4" class="edge">
<title>q6&#45;&gt;T_q6_b</title>
<path fill="none" stroke="black" d="M418.93,-154C430.44,-154 444.79,-154 456.75,-154"/>
<polygon fill="black" stroke="black" points="456.6,-155.75 461.6,-154 456.6,-152.25 456.6,-155.75"/>
<text text-anchor="middle" x="439.34" y="-156.5" font-family="Arial" font-size="10.00">b</text>
</g>
<!-- q7&#45;&gt;q8 -->
<g id="edge17" class="edge">
<title>q7&#45;&gt;q8</title>
<path fill="none" stroke="black" d="M415.2,-50.02C427.61,-58.75 444.53,-70.65 458.04,-80.15"/>
<polygon fill="black" stroke="black" points="456.89,-81.48 461.99,-82.93 458.9,-78.62 456.89,-81.48"/>
<text text-anchor="middle" x="439.34" y="-71.24" font-family="Arial" font-size="10.00">b</text>
</g>
<!-- T_q7_a -->
<g id="node25" class="node">
<title>T_q7_a</title>
<ellipse fill="none" stroke="black" cx="481.57" cy="-38" rx="18" ry="18"/>
<text text-anchor="middle" x="481.57" y="-34.5" font-family="Arial" font-size="10.00">T</text>
</g>
<!-- q7&#45;&gt;T_q7_a -->
<g id="edge5" class="edge">
<title>q7&#45;&gt;T_q7_a</title>
<path fill="none" stroke="black" d="M418.93,-38C430.44,-38 444.79,-38 456.75,-38"/>
<polygon fill="black" stroke="black" points="456.6,-39.75 461.6,-38 456.6,-36.25 456.6,-39.75"/>
<text text-anchor="middle" x="439.34" y="-40.5" font-family="Arial" font-size="10.00">a</text>
</g>
<!-- q9 -->
<g id="node10" class="node">
<title>q9</title>
<ellipse fill="none" stroke="black" cx="566.02" cy="-179" rx="21.6" ry="21.6"/>
<text text-anchor="middle" x="566.02" y="-174.72" font-family="Arial" font-size="12.00">q9</text>
</g>
<!-- q8&#45;&gt;q9 -->
<g id="edge18" class="edge">
<title>q8&#45;&gt;q9</title>
<path fill="none" stroke="black" d="M497.31,-110.84C510.83,-124.45 530.93,-144.68 545.72,-159.57"/>
<polygon fill="black" stroke="black" points="544.3,-160.62 549.06,-162.94 546.78,-158.16 544.3,-160.62"/>
<text text-anchor="middle" x="523.79" y="-142.49" font-family="Arial" font-size="10.00">a</text>
</g>
<!-- q10 -->
<g id="node11" class="node">
<title>q10</title>
<ellipse fill="none" stroke="black" cx="650.47" cy="-152" rx="21.6" ry="21.6"/>
<text text-anchor="middle" x="650.47" y="-147.72" font-family="Arial" font-size="12.00">q10</text>
</g>
<!-- q8&#45;&gt;q10 -->
<g id="edge19" class="edge">
<title>q8&#45;&gt;q10</title>
<path fill="none" stroke="black" d="M502.37,-102.64C532.53,-112.76 589.99,-132.04 623.47,-143.28"/>
<polygon fill="black" stroke="black" points="622.7,-144.86 628,-144.8 623.82,-141.55 622.7,-144.86"/>
<text text-anchor="middle" x="566.02" y="-132.98" font-family="Arial" font-size="10.00">b</text>
</g>
<!-- q9&#45;&gt;q10 -->
<g id="edge21" class="edge">
<title>q9&#45;&gt;q10</title>
<path fill="none" stroke="black" d="M587.12,-172.65C594.59,-170.28 603.12,-167.54 610.87,-165 614.93,-163.67 619.23,-162.24 623.42,-160.83"/>
<polygon fill="black" stroke="black" points="623.84,-162.54 628.02,-159.29 622.72,-159.22 623.84,-162.54"/>
<text text-anchor="middle" x="608.24" y="-169.05" font-family="Arial" font-size="10.00">b</text>
</g>
<!-- q11 -->
<g id="node12" class="node">
<title>q11</title>
<ellipse fill="none" stroke="black" cx="734.92" cy="-178" rx="21.6" ry="21.6"/>
<text text-anchor="middle" x="734.92" y="-173.72" font-family="Arial" font-size="12.00">q11</text>
</g>
<!-- q9&#45;&gt;q11 -->
<g id="edge20" class="edge">
<title>q9&#45;&gt;q11</title>
<path fill="none" stroke="black" d="M587.82,-181.55C593.58,-182.15 599.83,-182.7 605.62,-183 645.44,-185.06 655.56,-184.91 695.32,-182 699.02,-181.73 702.92,-181.39 706.75,-181.02"/>
<polygon fill="black" stroke="black" points="706.8,-182.78 711.6,-180.54 706.45,-179.29 706.8,-182.78"/>
<text text-anchor="middle" x="650.47" y="-186.89" font-family="Arial" font-size="10.00">a</text>
</g>
<!-- q10&#45;&gt;q9 -->
<g id="edge22" class="edge">
<title>q10&#45;&gt;q9</title>
<path fill="none" stroke="black" d="M628.96,-148.03C621.45,-147.36 612.99,-147.54 605.62,-150 599.05,-152.19 592.69,-156 587.1,-160.14"/>
<polygon fill="black" stroke="black" points="586.23,-158.6 583.39,-163.07 588.4,-161.35 586.23,-158.6"/>
<text text-anchor="middle" x="608.24" y="-152.5" font-family="Arial" font-size="10.00">a</text>
</g>
<!-- q10&#45;&gt;q11 -->
<g id="edge23" class="edge">
<title>q10&#45;&gt;q11</title>
<path fill="none" stroke="black" d="M671.96,-148.09C679.46,-147.43 687.93,-147.6 695.32,-150 701.83,-152.11 708.16,-155.78 713.75,-159.78"/>
<polygon fill="black" stroke="black" points="712.42,-160.96 717.46,-162.6 714.53,-158.18 712.42,-160.96"/>
<text text-anchor="middle" x="692.69" y="-152.5" font-family="Arial" font-size="10.00">b</text>
</g>
<!-- q11&#45;&gt;q10 -->
<g id="edge25" class="edge">
<title>q11&#45;&gt;q10</title>
<path fill="none" stroke="black" d="M713.86,-171.67C702.88,-168.21 689.16,-163.89 677.39,-160.17"/>
<polygon fill="black" stroke="black" points="678.17,-158.58 672.87,-158.75 677.11,-161.92 678.17,-158.58"/>
<text text-anchor="middle" x="692.69" y="-168.28" font-family="Arial" font-size="10.00">b</text>
</g>
<!-- q12 -->
<g id="node13" class="node">
<title>q12</title>
<ellipse fill="none" stroke="black" cx="819.37" cy="-166" rx="21.6" ry="21.6"/>
<text text-anchor="middle" x="819.37" y="-161.72" font-family="Arial" font-size="12.00">q12</text>
</g>
<!-- q11&#45;&gt;q12 -->
<g id="edge24" class="edge">
<title>q11&#45;&gt;q12</title>
<path fill="none" stroke="black" d="M756.73,-174.97C767.17,-173.45 779.96,-171.59 791.18,-169.96"/>
<polygon fill="black" stroke="black" points="791.38,-171.7 796.07,-169.25 790.87,-168.23 791.38,-171.7"/>
<text text-anchor="middle" x="777.14" y="-174.86" font-family="Arial" font-size="10.00">a</text>
</g>
<!-- q12&#45;&gt;q12 -->
<g id="edge27" class="edge">
<title>q12&#45;&gt;q12</title>
<path fill="none" stroke="black" d="M811.69,-186.37C810.62,-196.54 813.18,-205.6 819.37,-205.6 824.2,-205.6 826.82,-200.07 827.23,-192.8"/>
<polygon fill="black" stroke="black" points="828.98,-192.84 827.1,-187.89 825.48,-192.93 828.98,-192.84"/>
<text text-anchor="middle" x="819.37" y="-208.1" font-family="Arial" font-size="10.00">b</text>
</g>
<!-- q13 -->
<g id="node14" class="node">
<title>q13</title>
<ellipse fill="none" stroke="black" cx="903.82" cy="-166" rx="21.6" ry="21.6"/>
<text text-anchor="middle" x="903.82" y="-161.72" font-family="Arial" font-size="12.00">q13</text>
</g>
<!-- q12&#45;&gt;q13 -->
<g id="edge26" class="edge">
<title>q12&#45;&gt;q13</title>
<path fill="none" stroke="black" d="M841.18,-166C851.54,-166 864.22,-166 875.37,-166"/>
<polygon fill="black" stroke="black" points="875.22,-167.75 880.22,-166 875.22,-164.25 875.22,-167.75"/>
<text text-anchor="middle" x="861.59" y="-168.5" font-family="Arial" font-size="10.00">a</text>
</g>
<!-- q13&#45;&gt;q13 -->
<g id="edge29" class="edge">
<title>q13&#45;&gt;q13</title>
<path fill="none" stroke="black" d="M896.14,-186.37C895.07,-196.54 897.63,-205.6 903.82,-205.6 908.65,-205.6 911.27,-200.07 911.68,-192.8"/>
<polygon fill="black" stroke="black" points="913.43,-192.84 911.55,-187.89 909.93,-192.93 913.43,-192.84"/>
<text text-anchor="middle" x="903.82" y="-208.1" font-family="Arial" font-size="10.00">b</text>
</g>
<!-- q14 -->
<g id="node15" class="node">
<title>q14</title>
<ellipse fill="none" stroke="black" cx="988.27" cy="-164" rx="21.6" ry="21.6"/>
<text text-anchor="middle" x="988.27" y="-159.72" font-family="Arial" font-size="12.00">q14</text>
</g>
<!-- q13&#45;&gt;q14 -->
<g id="edge28" class="edge">
<title>q13&#45;&gt;q14</title>
<path fill="none" stroke="black" d="M925.63,-165.5C935.99,-165.24 948.67,-164.94 959.82,-164.67"/>
<polygon fill="black" stroke="black" points="959.72,-166.42 964.67,-164.55 959.63,-162.92 959.72,-166.42"/>
<text text-anchor="middle" x="946.04" y="-167.56" font-family="Arial" font-size="10.00">a</text>
</g>
<!-- q15 -->
<g id="node16" class="node">
<title>q15</title>
<ellipse fill="none" stroke="black" cx="1072.72" cy="-88" rx="21.6" ry="21.6"/>
<text text-anchor="middle" x="1072.72" y="-83.72" font-family="Arial" font-size="12.00">q15</text>
</g>
<!-- q14&#45;&gt;q15 -->
<g id="edge31" class="edge">
<title>q14&#45;&gt;q15</title>
<path fill="none" stroke="black" d="M1004.78,-149.7C1018.02,-137.5 1037.16,-119.86 1051.59,-106.56"/>
<polygon fill="black" stroke="black" points="1052.68,-107.93 1055.17,-103.26 1050.31,-105.36 1052.68,-107.93"/>
<text text-anchor="middle" x="1030.49" y="-130.78" font-family="Arial" font-size="10.00">b</text>
</g>
<!-- q16 -->
<g id="node17" class="node">
<title>q16</title>
<ellipse fill="none" stroke="black" cx="1072.72" cy="-159" rx="21.6" ry="21.6"/>
<text text-anchor="middle" x="1072.72" y="-154.72" font-family="Arial" font-size="12.00">q16</text>
</g>
<!-- q14&#45;&gt;q16 -->
<g id="edge30" class="edge">
<title>q14&#45;&gt;q16</title>
<path fill="none" stroke="black" d="M1010.08,-162.74C1020.52,-162.1 1033.31,-161.33 1044.53,-160.65"/>
<polygon fill="black" stroke="black" points="1044.53,-162.4 1049.41,-160.35 1044.31,-158.91 1044.53,-162.4"/>
<text text-anchor="middle" x="1030.49" y="-164.15" font-family="Arial" font-size="10.00">a</text>
</g>
<!-- q15&#45;&gt;q8 -->
<g id="edge32" class="edge">
<title>q15&#45;&gt;q8</title>
<path fill="none" stroke="black" d="M1051.58,-82.24C1035,-78.01 1010.8,-73 989.27,-73 565.02,-73 565.02,-73 565.02,-73 545.17,-73 523.58,-79.26 507.48,-85.25"/>
<polygon fill="black" stroke="black" points="507.26,-83.46 503.22,-86.89 508.51,-86.73 507.26,-83.46"/>
<text text-anchor="middle" x="777.14" y="-75.5" font-family="Arial" font-size="10.00">a</text>
</g>
<!-- q17 -->
<g id="node18" class="node">
<title>q17</title>
<ellipse fill="none" stroke="black" cx="1157.17" cy="-88" rx="21.6" ry="21.6"/>
<text text-anchor="middle" x="1157.17" y="-83.72" font-family="Arial" font-size="12.00">q17</text>
</g>
<!-- q15&#45;&gt;q17 -->
<g id="edge33" class="edge">
<title>q15&#45;&gt;q17</title>
<path fill="none" stroke="black" d="M1094.53,-88C1104.89,-88 1117.57,-88 1128.72,-88"/>
<polygon fill="black" stroke="black" points="1128.57,-89.75 1133.57,-88 1128.57,-86.25 1128.57,-89.75"/>
<text text-anchor="middle" x="1114.94" y="-90.5" font-family="Arial" font-size="10.00">b</text>
</g>
<!-- q16&#45;&gt;q12 -->
<g id="edge35" class="edge">
<title>q16&#45;&gt;q12</title>
<path fill="none" stroke="black" d="M1058.06,-142.54C1051.34,-135.73 1042.64,-128.6 1033.12,-125 1030.94,-124.18 1030.2,-124.92 1027.87,-125 963.02,-127.22 944.81,-117.91 882.22,-135 868.9,-138.64 855.07,-145.26 843.87,-151.45"/>
<polygon fill="black" stroke="black" points="843.08,-149.89 839.59,-153.89 844.8,-152.94 843.08,-149.89"/>
<text text-anchor="middle" x="946.04" y="-127.15" font-family="Arial" font-size="10.00">b</text>
</g>
<!-- q18 -->
<g id="node19" class="node">
<title>q18</title>
<ellipse fill="none" stroke="black" cx="1157.17" cy="-159" rx="21.6" ry="21.6"/>
<text text-anchor="middle" x="1157.17" y="-154.72" font-family="Arial" font-size="12.00">q18</text>
</g>
<!-- q16&#45;&gt;q18 -->
<g id="edge34" class="edge">
<title>q16&#45;&gt;q18</title>
<path fill="none" stroke="black" d="M1094.53,-159C1104.89,-159 1117.57,-159 1128.72,-159"/>
<polygon fill="black" stroke="black" points="1128.57,-160.75 1133.57,-159 1128.57,-157.25 1128.57,-160.75"/>
<text text-anchor="middle" x="1114.94" y="-161.5" font-family="Arial" font-size="10.00">a</text>
</g>
<!-- q17&#45;&gt;q8 -->
<g id="edge36" class="edge">
<title>q17&#45;&gt;q8</title>
<path fill="none" stroke="black" d="M1142.54,-71.5C1127.52,-55.3 1101.77,-33 1073.72,-33 565.02,-33 565.02,-33 565.02,-33 537.52,-33 513.5,-55.4 498.59,-73.49"/>
<polygon fill="black" stroke="black" points="497.32,-72.27 495.57,-77.27 500.06,-74.45 497.32,-72.27"/>
<text text-anchor="middle" x="819.37" y="-35.5" font-family="Arial" font-size="10.00">a</text>
</g>
<!-- q19 -->
<g id="node20" class="node">
<title>q19</title>
<ellipse fill="none" stroke="black" cx="1245.62" cy="-118" rx="21.6" ry="21.6"/>
<ellipse fill="none" stroke="black" cx="1245.62" cy="-118" rx="25.6" ry="25.6"/>
<text text-anchor="middle" x="1245.62" y="-113.72" font-family="Arial" font-size="12.00">q19</text>
</g>
<!-- q17&#45;&gt;q19 -->
<g id="edge37" class="edge">
<title>q17&#45;&gt;q19</title>
<path fill="none" stroke="black" d="M1177.79,-94.81C1188.83,-98.64 1202.84,-103.5 1215.18,-107.78"/>
<polygon fill="black" stroke="black" points="1214.36,-109.35 1219.65,-109.34 1215.5,-106.04 1214.36,-109.35"/>
<text text-anchor="middle" x="1199.39" y="-105.5" font-family="Arial" font-size="10.00">b</text>
</g>
<!-- q18&#45;&gt;q13 -->
<g id="edge39" class="edge">
<title>q18&#45;&gt;q13</title>
<path fill="none" stroke="black" d="M1138.28,-170.42C1126.33,-177.41 1109.98,-185.8 1094.32,-190 1085.4,-192.39 990.03,-200.2 966.67,-195 953.36,-192.04 939.53,-185.88 928.34,-180.01"/>
<polygon fill="black" stroke="black" points="929.3,-178.54 924.07,-177.7 927.63,-181.62 929.3,-178.54"/>
<text text-anchor="middle" x="1030.49" y="-198.27" font-family="Arial" font-size="10.00">b</text>
</g>
<!-- q18&#45;&gt;q19 -->
<g id="edge38" class="edge">
<title>q18&#45;&gt;q19</title>
<path fill="none" stroke="black" d="M1176.93,-150.1C1188.38,-144.67 1203.26,-137.62 1216.14,-131.51"/>
<polygon fill="black" stroke="black" points="1216.77,-133.15 1220.54,-129.42 1215.27,-129.98 1216.77,-133.15"/>
<text text-anchor="middle" x="1199.39" y="-142.23" font-family="Arial" font-size="10.00">a</text>
</g>
<!-- q19&#45;&gt;q19 -->
<g id="edge40" class="edge">
<title>q19&#45;&gt;q19</title>
<path fill="none" stroke="black" d="M1241.3,-143.53C1241.11,-153.4 1242.55,-161.6 1245.62,-161.6 1248.02,-161.6 1249.42,-156.59 1249.83,-149.7"/>
<polygon fill="black" stroke="black" points="1251.57,-150.07 1249.91,-145.04 1248.07,-150.01 1251.57,-150.07"/>
<text text-anchor="middle" x="1245.62" y="-164.1" font-family="Arial" font-size="10.00">a</text>
</g>
<!-- q19&#45;&gt;q19 -->
<g id="edge41" class="edge">
<title>q19&#45;&gt;q19</title>
<path fill="none" stroke="black" d="M1237.98,-142.67C1235.31,-161.06 1237.86,-179.6 1245.62,-179.6 1252.47,-179.6 1255.26,-165.15 1253.99,-149.11"/>
<polygon fill="black" stroke="black" points="1255.73,-148.95 1253.43,-144.17 1252.25,-149.34 1255.73,-148.95"/>
<text text-anchor="middle" x="1245.62" y="-182.1" font-family="Arial" font-size="10.00">b</text>
</g>
<!-- start_point -->
<g id="node26" class="node">
<title>start_point</title>
<ellipse fill="white" stroke="black" cx="0.36" cy="-75" rx="0.36" ry="0.36"/>
</g>
<!-- start_point&#45;&gt;q0 -->
<g id="edge6" class="edge">
<title>start_point&#45;&gt;q0</title>
<path fill="none" stroke="black" d="M0.89,-75C2.58,-75 17.01,-75 30.98,-75"/>
<polygon fill="black" stroke="black" points="30.81,-76.75 35.81,-75 30.81,-73.25 30.81,-76.75"/>
</g>
</g>
</svg>
